<?xml version='1.0' encoding='utf-8'?>
<svg xmlns="http://www.w3.org/2000/svg" width="1936.9204mm" height="1936.9204mm" viewBox="0 0 1936.9204 1936.9204" version="1.1" id="svg8"> <defs id="defs2"/> <metadata id="metadata5"> </metadata> <g id="layer1" transform="translate(1394.8174,834.74591)"> <path style="opacity:1;fill:#bfbfbf;fill-opacity:1;fill-rule:evenodd;stroke:none;stroke-width:7.52095604;stroke-linecap:square;stroke-linejoin:miter;stroke-miterlimit:0;stroke-dasharray:none;stroke-dashoffset:0;stroke-opacity:1;paint-order:normal" d="M -1388.2948,-834.74591 H 535.58049 c 3.61351,0 6.52257,4.70696 6.52257,10.55372 V 1091.6208 c 0,5.8467 -2.90906,10.5537 -6.52257,10.5537 H -1388.2948 c -3.6135,0 -6.5226,-4.707 -6.5226,-10.5537 V -824.19219 c 0,-5.84676 2.9091,-10.55372 6.5226,-10.55372 z" id="rect1164"/> <path style="opacity:1;fill:#14183b;fill-opacity:1;fill-rule:evenodd;stroke:none;stroke-width:11.89295292;stroke-linecap:square;stroke-linejoin:miter;stroke-miterlimit:0;stroke-dasharray:none;stroke-dashoffset:0;stroke-opacity:1;paint-order:normal" d="M -889.5354,621.73824 H 158.55485 c 7.25583,0 13.09713,5.84132 13.09713,13.09713 v 0.0455 c 0,7.25581 -5.8413,13.09713 -13.09713,13.09713 H -889.5354 c -7.2558,0 -13.09713,-5.84132 -13.09713,-13.09713 v -0.0455 c 0,-7.25581 5.84133,-13.09713 13.09713,-13.09713 z" id="rect1098"/> <path style="opacity:1;fill:#2b334a;fill-opacity:1;fill-rule:evenodd;stroke:none;stroke-width:39.64317703;stroke-linecap:square;stroke-linejoin:miter;stroke-miterlimit:0;stroke-dasharray:none;stroke-dashoffset:0;stroke-opacity:1;paint-order:normal" d="m -501.86424,303.37824 h 458.148717 c 9.743935,0 17.588345,9.72569 17.588345,21.80647 v 37.15275 c 0,12.08076 -7.84441,21.80647 -17.588345,21.80647 H -501.86424 c -9.74396,0 -17.58835,-9.72571 -17.58835,-21.80647 v -37.15275 c 0,-12.08078 7.84439,-21.80647 17.58835,-21.80647 z" id="rect968"/> <path style="color:#000000;font-style:normal;font-variant:normal;font-weight:normal;font-stretch:normal;font-size:medium;line-height:normal;font-family:sans-serif;font-variant-ligatures:normal;font-variant-position:normal;font-variant-caps:normal;font-variant-numeric:normal;font-variant-alternates:normal;font-feature-settings:normal;text-indent:0;text-align:start;text-decoration:none;text-decoration-line:none;text-decoration-style:solid;text-decoration-color:#000000;letter-spacing:normal;word-spacing:normal;text-transform:none;writing-mode:lr-tb;direction:ltr;text-orientation:mixed;dominant-baseline:auto;baseline-shift:baseline;text-anchor:start;white-space:normal;shape-padding:0;clip-rule:nonzero;display:inline;overflow:visible;visibility:visible;opacity:1;isolation:auto;mix-blend-mode:normal;color-interpolation:sRGB;color-interpolation-filters:linearRGB;solid-color:#000000;solid-opacity:1;vector-effect:none;fill:#304256;fill-opacity:1;fill-rule:evenodd;stroke:none;stroke-width:23.78590584;stroke-linecap:square;stroke-linejoin:miter;stroke-miterlimit:0;stroke-dasharray:47.57181638, 47.57181638;stroke-dashoffset:0;stroke-opacity:1;paint-order:normal;color-rendering:auto;image-rendering:auto;shape-rendering:auto;text-rendering:auto;enable-background:accumulate" d="m -622.91013,368.56942 h -11.59099 v 0.54972 l -1.46339,0.10824 -0.58845,0.062 -4.00301,0.50327 -11.80007,1.49438 2.981,23.59234 11.80004,-1.48664 3.81719,-0.48002 5.45095,-0.41038 6.00066,-0.1472 h 47.26984 11.89296 v -23.78589 h -11.89296 -35.97307 l -0.008,-0.29416 z m 83.55266,23.78589 h 11.89293 47.57182 11.89297 v -23.78589 h -11.89297 -47.57182 -11.89293 z m 95.14361,0 h 11.89297 47.57179 11.89296 v -23.78589 h -11.89296 -47.57179 -11.89297 z m 95.14365,0 h 11.89293 47.57182 11.89297 v -23.78589 h -11.89297 -47.57182 -11.89293 z m 95.14361,0 h 11.89297 47.57179 11.89296 v -23.78589 h -11.89296 -47.57179 -11.89297 z m 95.14365,0 h 11.89293 47.571824 11.892962 v -23.78589 h -11.892962 -47.571824 -11.89293 z m 95.143614,0 H -51.746374 -4.1745789 7.718383 V 368.56942 H -4.1745789 -51.746374 -63.639336 Z m 95.143643,0 h 11.892936 6.627823 l 6.000706,0.1472 5.450952,0.41037 5.67546,0.7123 5.303833,0.94463 5.358006,1.23112 5.118019,1.44792 3.491974,1.16916 11.273557,3.80171 7.595687,-22.53932 -11.273527,-3.80171 -3.693317,-1.23884 -0.557467,-0.17805 -5.776171,-1.63373 -0.572972,-0.14694 -5.884516,-1.34723 -0.58845,-0.12367 -5.99294,-1.06076 -0.588476,-0.0928 -6.093573,-0.76655 -0.596214,-0.062 -6.186468,-0.46457 -0.596188,-0.0316 -6.271674,-0.16262 H 50.319226 43.397164 31.504228 Z m -721.196177,-5.77612 -1.92792,1.1072 -0.49555,0.30208 -4.92445,3.15135 -0.48007,0.32507 -4.76182,3.37586 -0.45681,0.34054 -4.58374,3.6004 -0.44133,0.36391 -4.40567,3.8172 -0.41811,0.37939 -4.21983,4.01854 -0.40261,0.40263 -4.01851,4.2198 -0.37939,0.41812 -3.8172,4.40566 -0.36394,0.44136 -2.79515,3.56165 -7.34023,9.35335 18.70668,14.68812 7.34791,-9.35335 2.62479,-3.33715 3.43007,-3.97205 3.63138,-3.80171 3.80171,-3.63138 3.97208,-3.43783 4.14241,-3.25196 4.26626,-3.03516 4.44442,-2.84162 1.69564,-0.97558 10.32114,-5.91552 -11.83871,-20.6346 z m 803.9358,25.64417 8.98941,7.78153 0.78977,0.68134 3.88689,3.70109 3.5462,3.71656 3.51524,4.0572 3.25196,4.14244 3.05067,4.30496 2.84936,4.45213 2.6016,4.53728 2.28412,4.46763 5.41223,10.59214 21.18432,-10.82446 -5.41223,-10.59214 -2.40026,-4.69217 -0.27868,-0.51098 -2.919,-5.08706 -0.29416,-0.49553 -3.15135,-4.92442 -0.32507,-0.48007 -3.3836,-4.76182 -0.34051,-0.45681 -3.6004,-4.58374 -0.36394,-0.44136 -3.80946,-4.40564 -0.38692,-0.41814 -4.01856,-4.2198 -0.40261,-0.40261 -4.21209,-4.01856 -0.41811,-0.3794 -1.09175,-0.93683 -8.98938,-7.7893 z m -865.71566,55.12882 -0.27115,0.9446 -0.14694,0.57297 -1.34723,5.88454 -0.12367,0.58071 -1.06079,6.00065 -0.0928,0.58848 -0.76652,6.0936 -0.062,0.59619 -0.46457,6.18652 -0.0316,0.59618 -0.16262,6.27168 v 0.59619 l 0.16262,6.27167 0.0316,0.59619 0.46457,6.18652 0.062,0.59619 0.41811,3.33716 1.49435,11.80005 23.60009,-2.981 -1.49436,-11.80006 -0.39484,-3.15905 -0.41038,-5.45869 -0.14719,-5.69093 0.14719,-5.69099 0.41038,-5.45867 0.71232,-5.67549 0.94465,-5.3038 1.22336,-5.33482 0.19348,-0.67363 3.23645,-11.44386 -22.89547,-6.473 z m 910.28327,16.0663 0.89817,11.85427 0.0774,0.9988 0.13962,5.69099 -0.13962,5.69093 -0.42585,5.60581 -0.68134,5.37351 -0.96013,5.47417 -1.23883,5.34253 -1.48664,5.26511 -0.91365,2.72548 -3.80171,11.26576 22.53929,7.59572 3.80175,-11.26582 1.02977,-3.06612 0.17805,-0.56523 1.62597,-5.76838 0.1472,-0.57297 1.355,-5.89228 0.11608,-0.58071 1.06855,-5.99294 0.0852,-0.58845 0.77429,-6.0936 0.062,-0.59619 0.46457,-6.18652 0.0316,-0.59619 0.15504,-6.27167 v -0.59619 l -0.15504,-6.27168 -0.0316,-0.59618 -0.10066,-1.31628 -0.89819,-11.86198 z m -903.05147,74.74135 5.92324,10.3134 1.43242,2.50094 0.30208,0.49553 3.15132,4.93218 0.31754,0.47231 3.3836,4.76182 0.34051,0.45683 3.60045,4.58375 0.36392,0.44135 3.81719,4.40567 0.37939,0.42583 4.01851,4.21209 0.40261,0.40263 4.21983,4.01851 0.41812,0.38732 4.40566,3.80943 0.44136,0.36391 3.03517,2.38478 9.35332,7.3402 14.68812,-18.70662 -9.35333,-7.34021 -2.70997,-2.12928 -4.07276,-3.52296 -3.80169,-3.63135 -3.70882,-3.87916 -3.35262,-3.87913 -3.25976,-4.15789 -3.03514,-4.26629 -2.84163,-4.44439 -1.30854,-2.27641 -5.91548,-10.3134 z m 876.95821,16.21342 -1.18466,1.36274 -3.62362,3.80174 -3.89463,3.70103 -3.97982,3.44557 -4.02622,3.15906 -4.32825,3.07392 -4.33597,2.77191 -4.76958,2.74095 -3.763023,1.92023 -10.592136,5.40447 10.824436,21.18432 10.592163,-5.40447 4.10369,-2.09833 0.51103,-0.27868 5.08701,-2.91905 0.48782,-0.29414 4.93218,-3.15906 0.47229,-0.31754 4.76184,-3.38362 0.45681,-0.34054 4.59151,-3.60038 0.4413,-0.36394 4.40567,-3.80942 0.41811,-0.38732 4.21209,-4.01851 0.40261,-0.40261 4.01856,-4.21209 0.3869,-0.42585 1.3705,-1.5873 7.78927,-8.98939 -17.98656,-15.5708 z m -802.02333,53.03825 11.44386,3.23651 1.57956,0.44907 0.58069,0.1472 5.88457,1.35494 0.58068,0.11609 5.99294,1.06076 0.59619,0.0928 6.0936,0.76652 0.58845,0.062 6.18652,0.47229 0.60392,0.0235 6.26394,0.16262 h 0.30208 15.18367 11.89294 v -23.78589 h -11.89294 -15.18367 l -5.69096,-0.1472 -5.60579,-0.41811 -5.52836,-0.70462 -5.42771,-0.96784 -5.22639,-1.20014 -1.30083,-0.37184 -11.44387,-3.2365 z m 726.980033,-16.11276 -1.656976,0.12366 -5.698703,0.1472 H 11.009091 -0.88387087 v 23.7859 H 11.009091 50.319304 50.621385 l 6.271675,-0.16262 0.596188,-0.0235 1.974377,-0.15504 11.862006,-0.89043 -1.78859,-23.72399 z m -629.420633,24.05689 h 11.89296 47.57182 11.89294 v -23.7859 h -11.89294 -47.57182 -11.89296 z m 95.14364,0 h 11.89294 47.57182 11.89296 v -23.7859 h -11.89296 -47.57182 -11.89294 z m 95.14362,0 h 11.89296 47.57182 11.89294 v -23.7859 h -11.89294 -47.57182 -11.89296 z m 95.14364,0 h 11.89294 47.57182 11.89296 v -23.7859 h -11.89296 -47.57182 -11.89294 z m 95.14362,0 h 11.89296 47.57182 11.89294 v -23.7859 h -11.89294 -47.57182 -11.89296 z m 95.143642,0 h 11.892936 47.571822 11.892961 v -23.7859 H -36.56273 -84.134552 -96.027488 Z" id="rect887"/> <path style="opacity:1;fill:#14183b;fill-opacity:1;fill-rule:evenodd;stroke:none;stroke-width:23.78590584;stroke-linecap:square;stroke-linejoin:miter;stroke-miterlimit:0;stroke-dasharray:47.57181638, 47.57181638;stroke-dashoffset:0;stroke-opacity:1;paint-order:normal" d="M -622.60766,380.46232 H 50.323147 c 67.311783,0 121.501383,54.18961 121.501383,121.50144 0,67.31173 -54.1896,121.50139 -121.501383,121.50139 H -622.60766 c -67.31175,0 -121.50138,-54.18966 -121.50138,-121.50139 0,-67.31183 54.18963,-121.50144 121.50138,-121.50144 z" id="rect889"/> <path style="opacity:1;fill:#2b334a;fill-opacity:1;fill-rule:evenodd;stroke:none;stroke-width:15.85727215;stroke-linecap:square;stroke-linejoin:miter;stroke-miterlimit:4;stroke-dasharray:none;stroke-dashoffset:0;stroke-opacity:1;paint-order:normal" d="m -701.2764,125.02713 h 17.98102 c 12.86689,0 23.22548,10.35856 23.22548,23.22548 v 124.36868 c 0,12.86692 -10.35859,23.22547 -23.22548,23.22547 h -17.98102 c -12.86692,0 -23.22548,-10.35855 -23.22548,-23.22547 V 148.25261 c 0,-12.86692 10.35856,-23.22548 23.22548,-23.22548 z" id="rect871"/> <path style="color:#000000;font-style:normal;font-variant:normal;font-weight:normal;font-stretch:normal;font-size:medium;line-height:normal;font-family:sans-serif;font-variant-ligatures:normal;font-variant-position:normal;font-variant-caps:normal;font-variant-numeric:normal;font-variant-alternates:normal;font-feature-settings:normal;text-indent:0;text-align:start;text-decoration:none;text-decoration-line:none;text-decoration-style:solid;text-decoration-color:#000000;letter-spacing:normal;word-spacing:normal;text-transform:none;writing-mode:lr-tb;direction:ltr;text-orientation:mixed;dominant-baseline:auto;baseline-shift:baseline;text-anchor:start;white-space:normal;shape-padding:0;clip-rule:nonzero;display:inline;overflow:visible;visibility:visible;opacity:1;isolation:auto;mix-blend-mode:normal;color-interpolation:sRGB;color-interpolation-filters:linearRGB;solid-color:#000000;solid-opacity:1;vector-effect:none;fill:#304256;fill-opacity:1;fill-rule:evenodd;stroke:none;stroke-width:27.75022507;stroke-linecap:square;stroke-linejoin:miter;stroke-miterlimit:4;stroke-dasharray:none;stroke-dashoffset:0;stroke-opacity:1;paint-order:normal;color-rendering:auto;image-rendering:auto;shape-rendering:auto;text-rendering:auto;enable-background:accumulate" d="m -523.17629,-201.96222 v 27.74856 h 15.25604 c 12.74877,0 22.57784,9.83722 22.57784,22.58599 v 78.013463 h 27.74853 v -78.013463 c 0,-27.64239 -22.68398,-50.33455 -50.32637,-50.33455 z" id="rect894"/> <path style="opacity:1;fill:#2b334a;fill-opacity:1;fill-rule:evenodd;stroke:none;stroke-width:15.85727215;stroke-linecap:square;stroke-linejoin:miter;stroke-miterlimit:4;stroke-dasharray:none;stroke-dashoffset:0;stroke-opacity:1;paint-order:normal" d="m -481.94919,-95.904703 h 17.98102 c 12.86692,0 23.22548,10.358563 23.22548,23.225476 v 124.36867 c 0,12.866921 -10.35856,23.225476 -23.22548,23.225476 h -17.98102 c -12.86689,0 -23.22548,-10.358555 -23.22548,-23.225476 v -124.36867 c 0,-12.866913 10.35859,-23.225476 23.22548,-23.225476 z" id="rect873"/> <path style="opacity:1;fill:#feaa23;fill-opacity:1;fill-rule:evenodd;stroke:none;stroke-width:39.64317703;stroke-linecap:square;stroke-linejoin:miter;stroke-miterlimit:0;stroke-dasharray:none;stroke-dashoffset:0;stroke-opacity:1;paint-order:normal" d="m 9.8701295,-352.46195 c 17.1021235,0 30.8702425,4.74094 30.8702425,10.6299 v 305.964777 c 0,5.888962 -13.768119,10.629897 -30.8702425,10.629897 -17.1021233,0 -30.8702425,-4.740935 -30.8702425,-10.629897 V -341.83205 c 0,-5.88896 13.7681192,-10.6299 30.8702425,-10.6299 z" id="rect939"/> <path style="opacity:1;fill:#f7924e;fill-opacity:1;fill-rule:evenodd;stroke:none;stroke-width:39.64317703;stroke-linecap:square;stroke-linejoin:miter;stroke-miterlimit:0;stroke-dasharray:none;stroke-dashoffset:0;stroke-opacity:1;paint-order:normal" d="m 9.8704171,-352.46104 c -17.1020971,0 -30.8706081,4.73926 -30.8706081,10.62822 v 37.21931 h 61.741216 v -37.21931 c 0,-5.88896 -13.768511,-10.62822 -30.8706079,-10.62822 z" id="rect1014"/> <path style="color:#000000;font-style:normal;font-variant:normal;font-weight:normal;font-stretch:normal;font-size:medium;line-height:normal;font-family:sans-serif;font-variant-ligatures:normal;font-variant-position:normal;font-variant-caps:normal;font-variant-numeric:normal;font-variant-alternates:normal;font-feature-settings:normal;text-indent:0;text-align:start;text-decoration:none;text-decoration-line:none;text-decoration-style:solid;text-decoration-color:#000000;letter-spacing:normal;word-spacing:normal;text-transform:none;writing-mode:lr-tb;direction:ltr;text-orientation:mixed;dominant-baseline:auto;baseline-shift:baseline;text-anchor:start;white-space:normal;shape-padding:0;clip-rule:nonzero;display:inline;overflow:visible;visibility:visible;opacity:1;isolation:auto;mix-blend-mode:normal;color-interpolation:sRGB;color-interpolation-filters:linearRGB;solid-color:#000000;solid-opacity:1;vector-effect:none;fill:#304256;fill-opacity:1;fill-rule:evenodd;stroke:none;stroke-width:39.64317703;stroke-linecap:square;stroke-linejoin:miter;stroke-miterlimit:0;stroke-dasharray:none;stroke-dashoffset:0;stroke-opacity:1;paint-order:normal;color-rendering:auto;image-rendering:auto;shape-rendering:auto;text-rendering:auto;enable-background:accumulate" d="m -190.33485,-376.91252 c -62.22932,0 -94.57046,61.70929 -108.25102,129.8619 l -40.08124,199.664452 h 39.64485 l 40.07917,-199.664452 c 10.31552,-51.38862 32.8546,-90.21908 68.60824,-90.21908 h 298.99028 v -39.64282 z" id="rect926"/> <path style="opacity:1;fill:#9ea3a7;fill-opacity:1;fill-rule:evenodd;stroke:none;stroke-width:41.09000397;stroke-linecap:square;stroke-linejoin:miter;stroke-miterlimit:0;stroke-dasharray:none;stroke-dashoffset:0;stroke-opacity:1;paint-order:normal" d="m -705.56706,132.68801 h 23.65029 c 5.4663,0 9.86697,4.1376 9.86697,9.27713 0,5.13954 -4.40067,9.27714 -9.86697,9.27714 h -23.65029 c -5.46632,0 -9.86699,-4.1376 -9.86699,-9.27714 0,-5.13953 4.40067,-9.27713 9.86699,-9.27713 z" id="rect1029"/> <path style="opacity:1;fill:#feaa23;fill-opacity:1;fill-rule:evenodd;stroke:none;stroke-width:11.89295292;stroke-linecap:square;stroke-linejoin:miter;stroke-miterlimit:0;stroke-dasharray:none;stroke-dashoffset:0;stroke-opacity:1;paint-order:normal" d="m 87.625961,31.872566 h 26.622989 c 13.14798,0 23.7328,12.761423 23.7328,28.613049 V 200.82906 c 0,15.85163 -10.58482,28.61305 -23.7328,28.61305 H 87.625961 c -13.147956,0 -23.732797,-12.76142 -23.732797,-28.61305 V 60.485615 c 0,-15.851626 10.584841,-28.613049 23.732797,-28.613049 z" id="rect1076"/> <path style="opacity:1;fill:#2b334a;fill-opacity:1;fill-rule:evenodd;stroke:none;stroke-width:9.45156097;stroke-linecap:square;stroke-linejoin:miter;stroke-miterlimit:0;stroke-dasharray:none;stroke-dashoffset:0;stroke-opacity:1;paint-order:normal" d="M 81.837763,95.156553 H 120.0372 c 6.09331,0 10.9988,4.130412 10.9988,9.261037 0,5.13067 -4.90549,9.26108 -10.9988,9.26108 H 81.837763 c -6.093312,0 -10.998745,-4.13041 -10.998745,-9.26108 0,-5.130625 4.905433,-9.261037 10.998745,-9.261037 z" id="rect1083"/> <path style="opacity:1;fill:#fec368;fill-opacity:1;fill-rule:evenodd;stroke:none;stroke-width:11.89295292;stroke-linecap:square;stroke-linejoin:miter;stroke-miterlimit:0;stroke-dasharray:none;stroke-dashoffset:0;stroke-opacity:1;paint-order:normal" d="m 87.625726,31.872017 c -9.44873,0 -17.573756,6.592214 -21.397799,16.184033 -0.0078,0.264432 -0.02092,0.528132 -0.02092,0.794891 0,12.82658 10.585285,23.153473 23.733241,23.153473 h 35.113342 c 4.77649,0 9.21141,-1.36781 12.92677,-3.71826 v -7.80114 c 0,-15.851598 -10.58322,-28.612997 -23.7312,-28.612997 z" id="rect1078"/> <path style="opacity:1;fill:#2b334a;fill-opacity:1;fill-rule:evenodd;stroke:none;stroke-width:9.45156097;stroke-linecap:square;stroke-linejoin:miter;stroke-miterlimit:0;stroke-dasharray:none;stroke-dashoffset:0;stroke-opacity:1;paint-order:normal" d="M 81.837763,127.5702 H 120.0372 c 6.09331,0 10.9988,4.13043 10.9988,9.26106 0,5.13064 -4.90549,9.26105 -10.9988,9.26105 H 81.837763 c -6.093312,0 -10.998745,-4.13041 -10.998745,-9.26105 0,-5.13063 4.905433,-9.26106 10.998745,-9.26106 z" id="rect1085"/> <path style="opacity:1;fill:#2b334a;fill-opacity:1;fill-rule:evenodd;stroke:none;stroke-width:9.45156097;stroke-linecap:square;stroke-linejoin:miter;stroke-miterlimit:0;stroke-dasharray:none;stroke-dashoffset:0;stroke-opacity:1;paint-order:normal" d="M 81.837763,159.98405 H 120.0372 c 6.09331,0 10.9988,4.13041 10.9988,9.26108 0,5.13063 -4.90549,9.26104 -10.9988,9.26104 H 81.837763 c -6.093312,0 -10.998745,-4.13041 -10.998745,-9.26104 0,-5.13067 4.905433,-9.26108 10.998745,-9.26108 z" id="rect1087"/> <path style="opacity:1;fill:#fdcc43;fill-opacity:1;fill-rule:evenodd;stroke:none;stroke-width:19.82158852;stroke-linecap:square;stroke-linejoin:miter;stroke-miterlimit:4;stroke-dasharray:none;stroke-dashoffset:0;stroke-opacity:1;paint-order:normal" d="m -293.5791,-79.535431 c -77.70545,16.310892 -84.44868,80.29928465 -117.19526,137.967736 h -191.47817 c -49.80741,0 -89.90567,40.098228 -89.90567,89.905695 v 92.90073 c 0,49.80736 40.09826,89.90562 89.90567,89.90562 h 248.73704 317.664875 32.9663519 c 49.8074151,0 89.9036041,-40.09826 89.9036041,-89.90562 V 10.370212 c 0,-49.807415 -40.096189,-89.905643 -89.9036041,-89.905643 z" id="rect839"/> <path style="opacity:1;fill:#feaa23;fill-opacity:1;fill-rule:evenodd;stroke:none;stroke-width:11.89295292;stroke-linecap:square;stroke-linejoin:miter;stroke-miterlimit:0;stroke-dasharray:none;stroke-dashoffset:0;stroke-opacity:1;paint-order:normal" d="m -261.20099,92.069516 h 243.130521 c 20.3011924,0 36.64474,16.343544 36.64474,36.644744 v 34.75638 c 0,20.30119 -16.3435476,36.64474 -36.64474,36.64474 H -261.20099 c -20.30119,0 -36.64474,-16.34355 -36.64474,-36.64474 v -34.75638 c 0,-20.3012 16.34355,-36.644744 36.64474,-36.644744 z" id="rect1054"/> <path style="opacity:1;fill:#f7924e;fill-opacity:1;fill-rule:evenodd;stroke:none;stroke-width:34.32752991;stroke-linecap:square;stroke-linejoin:miter;stroke-miterlimit:0;stroke-dasharray:none;stroke-dashoffset:0;stroke-opacity:1;paint-order:normal" d="m -498.31561,165.31829 h 78.44666 c 7.44316,0 13.43532,4.53284 13.43532,10.1633 V 224.613 c 0,5.63049 -5.99216,10.16333 -13.43532,10.16333 h -78.44666 c -7.44316,0 -13.43529,-4.53284 -13.43529,-10.16333 v -49.13141 c 0,-5.63046 5.99213,-10.1633 13.43529,-10.1633 z" id="rect1023"/> <path style="opacity:1;fill:#2b334a;fill-opacity:1;fill-rule:evenodd;stroke:none;stroke-width:15.53584099;stroke-linecap:square;stroke-linejoin:miter;stroke-miterlimit:4;stroke-dasharray:none;stroke-dashoffset:0;stroke-opacity:1;paint-order:normal" d="m -490.921,499.73335 a 122.90679,122.90679 0 0 1 -122.90677,122.90679 122.90679,122.90679 0 0 1 -122.9068,-122.90679 122.90679,122.90679 0 0 1 122.9068,-122.9068 122.90679,122.90679 0 0 1 122.90677,122.9068 z" id="path844"/> <path style="opacity:1;fill:#feaa23;fill-opacity:1;fill-rule:evenodd;stroke:none;stroke-width:9.66428089;stroke-linecap:square;stroke-linejoin:miter;stroke-miterlimit:4;stroke-dasharray:none;stroke-dashoffset:0;stroke-opacity:1;paint-order:normal" d="m -537.37193,499.73335 a 76.455837,76.455837 0 0 1 -76.45584,76.45584 76.455837,76.455837 0 0 1 -76.45585,-76.45584 76.455837,76.455837 0 0 1 76.45585,-76.45584 76.455837,76.455837 0 0 1 76.45584,76.45584 z" id="circle863"/> <path style="opacity:1;fill:#f7924e;fill-opacity:1;fill-rule:evenodd;stroke:none;stroke-width:39.64317703;stroke-linecap:square;stroke-linejoin:miter;stroke-miterlimit:0;stroke-dasharray:none;stroke-dashoffset:0;stroke-opacity:1;paint-order:normal" d="m -613.82725,423.27685 a 76.455839,76.455839 0 0 0 -76.45647,76.4565 76.455839,76.455839 0 0 0 1.62048,15.2581 h 149.7478 a 76.455839,76.455839 0 0 0 1.54262,-15.2581 76.455839,76.455839 0 0 0 -76.45443,-76.4565 z" id="rect1003"/> <path style="opacity:1;fill:#2b334a;fill-opacity:1;fill-rule:evenodd;stroke:none;stroke-width:11.78580952;stroke-linecap:square;stroke-linejoin:miter;stroke-miterlimit:4;stroke-dasharray:none;stroke-dashoffset:0;stroke-opacity:1;paint-order:normal" d="m -151.8657,501.10037 a 93.239627,93.239627 0 0 1 -93.23962,93.23963 93.239627,93.239627 0 0 1 -93.23963,-93.23963 93.239627,93.239627 0 0 1 93.23963,-93.23964 93.239627,93.239627 0 0 1 93.23962,93.23964 z" id="circle848"/> <path style="color:#000000;font-style:normal;font-variant:normal;font-weight:normal;font-stretch:normal;font-size:medium;line-height:normal;font-family:sans-serif;font-variant-ligatures:normal;font-variant-position:normal;font-variant-caps:normal;font-variant-numeric:normal;font-variant-alternates:normal;font-feature-settings:normal;text-indent:0;text-align:start;text-decoration:none;text-decoration-line:none;text-decoration-style:solid;text-decoration-color:#000000;letter-spacing:normal;word-spacing:normal;text-transform:none;writing-mode:lr-tb;direction:ltr;text-orientation:mixed;dominant-baseline:auto;baseline-shift:baseline;text-anchor:start;white-space:normal;shape-padding:0;clip-rule:nonzero;display:inline;overflow:visible;visibility:visible;opacity:1;isolation:auto;mix-blend-mode:normal;color-interpolation:sRGB;color-interpolation-filters:linearRGB;solid-color:#000000;solid-opacity:1;vector-effect:none;fill:#304256;fill-opacity:1;fill-rule:evenodd;stroke:none;stroke-width:14.05390358;stroke-linecap:square;stroke-linejoin:miter;stroke-miterlimit:4;stroke-dasharray:none;stroke-dashoffset:0;stroke-opacity:1;paint-order:normal;color-rendering:auto;image-rendering:auto;shape-rendering:auto;text-rendering:auto;enable-background:accumulate" d="m -613.82657,406.31079 c -51.51072,0 -93.41696,41.91401 -93.41696,93.42473 0,51.51074 41.90624,93.41701 93.41696,93.41701 51.51069,0 93.41699,-41.90627 93.41699,-93.41701 0,-51.51072 -41.9063,-93.42473 -93.41699,-93.42473 z m 0,14.06097 c 43.91542,0 79.36378,35.44836 79.36378,79.36376 0,43.91544 -35.44836,79.36378 -79.36378,79.36378 -43.9154,0 -79.36379,-35.44834 -79.36379,-79.36378 0,-43.9154 35.44839,-79.36376 79.36379,-79.36376 z" id="circle851"/> <path style="opacity:1;fill:#14183b;fill-opacity:1;fill-rule:evenodd;stroke:none;stroke-width:5.08932686;stroke-linecap:square;stroke-linejoin:miter;stroke-miterlimit:4;stroke-dasharray:none;stroke-dashoffset:0;stroke-opacity:1;paint-order:normal" d="m -573.56522,499.7335 a 40.262566,40.262566 0 0 1 -40.26255,40.26258 40.262566,40.262566 0 0 1 -40.26258,-40.26258 40.262566,40.262566 0 0 1 40.26258,-40.26257 40.262566,40.262566 0 0 1 40.26255,40.26257 z" id="circle855"/> <path style="opacity:1;fill:#f7924e;fill-opacity:1;fill-rule:evenodd;stroke:none;stroke-width:2.94645214;stroke-linecap:square;stroke-linejoin:miter;stroke-miterlimit:4;stroke-dasharray:none;stroke-dashoffset:0;stroke-opacity:1;paint-order:normal" d="m -590.51787,499.7335 a 23.309905,23.309905 0 0 1 -23.3099,23.3099 23.309905,23.309905 0 0 1 -23.30993,-23.3099 23.309905,23.309905 0 0 1 23.30993,-23.30989 23.309905,23.309905 0 0 1 23.3099,23.30989 z" id="circle857"/> <path style="opacity:1;fill:#feaa23;fill-opacity:1;fill-rule:evenodd;stroke:none;stroke-width:7.99770689;stroke-linecap:square;stroke-linejoin:miter;stroke-miterlimit:4;stroke-dasharray:none;stroke-dashoffset:0;stroke-opacity:1;paint-order:normal" d="m -181.83404,501.10037 a 63.271281,63.271281 0 0 1 -63.27128,63.27129 63.271281,63.271281 0 0 1 -63.27129,-63.27129 63.271281,63.271281 0 0 1 63.27129,-63.27128 63.271281,63.271281 0 0 1 63.27128,63.27128 z" id="circle865"/> <path style="opacity:1;fill:#14183b;fill-opacity:1;fill-rule:evenodd;stroke:none;stroke-width:3.92549586;stroke-linecap:square;stroke-linejoin:miter;stroke-miterlimit:4;stroke-dasharray:none;stroke-dashoffset:0;stroke-opacity:1;paint-order:normal" d="m -214.05003,501.10037 a 31.055295,31.055295 0 0 1 -31.05529,31.0553 31.055295,31.055295 0 0 1 -31.0553,-31.0553 31.055295,31.055295 0 0 1 31.0553,-31.05529 31.055295,31.055295 0 0 1 31.05529,31.05529 z" id="circle867"/> <path style="opacity:1;fill:#f7924e;fill-opacity:1;fill-rule:evenodd;stroke:none;stroke-width:2.22084951;stroke-linecap:square;stroke-linejoin:miter;stroke-miterlimit:4;stroke-dasharray:none;stroke-dashoffset:0;stroke-opacity:1;paint-order:normal" d="m -227.5358,501.10037 a 17.569535,17.569535 0 0 1 -17.56952,17.56952 17.569535,17.569535 0 0 1 -17.56955,-17.56952 17.569535,17.569535 0 0 1 17.56955,-17.56954 17.569535,17.569535 0 0 1 17.56952,17.56954 z" id="circle869"/> <path style="opacity:1;fill:#2b334a;fill-opacity:1;fill-rule:evenodd;stroke:none;stroke-width:15.85727215;stroke-linecap:square;stroke-linejoin:miter;stroke-miterlimit:4;stroke-dasharray:none;stroke-dashoffset:0;stroke-opacity:1;paint-order:normal" d="m -1100.4763,235.2454 h 16.4826 c 12.8669,0 23.2255,10.35858 23.2255,23.22552 v 319.16292 c 0,12.86695 -10.3586,23.22553 -23.2255,23.22553 h -16.4826 c -12.8669,0 -23.2255,-10.35858 -23.2255,-23.22553 V 258.47092 c 0,-12.86694 10.3586,-23.22552 23.2255,-23.22552 z" id="rect877"/> <path style="opacity:1;fill:#2b334a;fill-opacity:1;fill-rule:evenodd;stroke:none;stroke-width:15.85727215;stroke-linecap:square;stroke-linejoin:miter;stroke-miterlimit:4;stroke-dasharray:none;stroke-dashoffset:0;stroke-opacity:1;paint-order:normal" d="m -1316.0861,590.89331 c 0,0 -2.6379,0.73742 -2.7007,4.79829 -0.063,4.06685 2.7016,5.16766 2.7016,5.16766 h 220.8532 v -98.98713 c -74.3269,28.01082 -147.9557,57.53433 -220.8541,89.02118 z" id="rect879"/> <path style="opacity:1;fill:#2b334a;fill-opacity:1;fill-rule:evenodd;stroke:none;stroke-width:12.14400196;stroke-linecap:square;stroke-linejoin:miter;stroke-miterlimit:4;stroke-dasharray:none;stroke-dashoffset:0;stroke-opacity:1;paint-order:normal" d="m -505.1298,189.55038 h 92.347 c 3.84574,0 6.94177,3.09603 6.94177,6.94177 0,3.84577 -3.09603,6.9418 -6.94177,6.9418 h -92.347 c -3.84574,0 -6.94178,-3.09603 -6.94178,-6.9418 0,-3.84574 3.09604,-6.94177 6.94178,-6.94177 z" id="rect885"/> <path style="opacity:1;fill:#3d526f;fill-opacity:1;fill-rule:evenodd;stroke:none;stroke-width:25.90659332;stroke-linecap:square;stroke-linejoin:miter;stroke-miterlimit:4;stroke-dasharray:none;stroke-dashoffset:0;stroke-opacity:1;paint-order:normal" d="m -361.6425,431.00811 h 236.18607 c 9.74394,0 17.58832,9.72568 17.58832,21.80644 v 96.57141 c 0,12.08079 -7.84438,21.80645 -17.58832,21.80645 H -361.6425 c -9.74394,0 -17.58835,-9.72566 -17.58835,-21.80645 v -96.57141 c 0,-12.08076 7.84441,-21.80644 17.58835,-21.80644 z" id="rect904"/> <path style="opacity:1;fill:#2a3858;fill-opacity:1;fill-rule:evenodd;stroke:none;stroke-width:39.64317703;stroke-linecap:square;stroke-linejoin:miter;stroke-miterlimit:0;stroke-dasharray:none;stroke-dashoffset:0;stroke-opacity:1;paint-order:normal" d="m -379.23179,498.01253 v 51.37319 c 0,12.08071 7.84551,21.80752 17.58944,21.80752 h 236.18514 c 9.74393,0 17.58944,-9.72681 17.58944,-21.80752 v -51.37319 z" id="rect1031"/> <path style="opacity:1;fill:#2b334a;fill-opacity:1;fill-rule:evenodd;stroke:none;stroke-width:15.53584099;stroke-linecap:square;stroke-linejoin:miter;stroke-miterlimit:4;stroke-dasharray:none;stroke-dashoffset:0;stroke-opacity:1;paint-order:normal" d="M 164.80676,499.73335 A 122.90679,122.90679 0 0 1 41.899988,622.64014 122.90679,122.90679 0 0 1 -81.006807,499.73335 122.90679,122.90679 0 0 1 41.899988,376.82655 122.90679,122.90679 0 0 1 164.80676,499.73335 Z" id="circle946"/> <path style="color:#000000;font-style:normal;font-variant:normal;font-weight:normal;font-stretch:normal;font-size:medium;line-height:normal;font-family:sans-serif;font-variant-ligatures:normal;font-variant-position:normal;font-variant-caps:normal;font-variant-numeric:normal;font-variant-alternates:normal;font-feature-settings:normal;text-indent:0;text-align:start;text-decoration:none;text-decoration-line:none;text-decoration-style:solid;text-decoration-color:#000000;letter-spacing:normal;word-spacing:normal;text-transform:none;writing-mode:lr-tb;direction:ltr;text-orientation:mixed;dominant-baseline:auto;baseline-shift:baseline;text-anchor:start;white-space:normal;shape-padding:0;clip-rule:nonzero;display:inline;overflow:visible;visibility:visible;opacity:1;isolation:auto;mix-blend-mode:normal;color-interpolation:sRGB;color-interpolation-filters:linearRGB;solid-color:#000000;solid-opacity:1;vector-effect:none;fill:#304256;fill-opacity:1;fill-rule:evenodd;stroke:none;stroke-width:11.8209362;stroke-linecap:square;stroke-linejoin:miter;stroke-miterlimit:0;stroke-dasharray:none;stroke-dashoffset:0;stroke-opacity:1;paint-order:normal;color-rendering:auto;image-rendering:auto;shape-rendering:auto;text-rendering:auto;enable-background:accumulate" d="m -620.57181,375.29016 c -70.07635,0 -126.67233,56.59598 -126.67233,126.67238 0,70.07629 56.59598,126.68009 126.67233,126.68009 H 48.282962 c 70.076318,0 126.680088,-56.6038 126.680088,-126.68009 0,-70.0764 -56.60377,-126.67238 -126.680088,-126.67238 z m 0,11.81552 H 48.282962 c 63.731988,0 114.856828,51.12482 114.856828,114.85686 0,63.73196 -51.12484,114.85677 -114.856828,114.85677 H -620.57181 c -63.73199,0 -114.85683,-51.12481 -114.85683,-114.85677 0,-63.73204 51.12484,-114.85686 114.85683,-114.85686 z" id="path910"/> <path style="opacity:1;fill:#2b334a;fill-opacity:1;fill-rule:evenodd;stroke:none;stroke-width:11.89295292;stroke-linecap:square;stroke-linejoin:miter;stroke-miterlimit:0;stroke-dasharray:none;stroke-dashoffset:0;stroke-opacity:1;paint-order:normal" d="m -990.32587,433.18571 a 55.566441,55.566441 0 0 1 -55.56643,55.56644 55.566441,55.566441 0 0 1 -55.5665,-55.56644 55.566441,55.566441 0 0 1 55.5665,-55.56644 55.566441,55.566441 0 0 1 55.56643,55.56644 z" id="path914"/> <path style="opacity:1;fill:#9ea3a7;fill-opacity:1;fill-rule:evenodd;stroke:none;stroke-width:15.45363998;stroke-linecap:square;stroke-linejoin:miter;stroke-miterlimit:4;stroke-dasharray:none;stroke-dashoffset:0;stroke-opacity:1;paint-order:normal" d="m -1045.7538,398.06552 386.58713,-247.98935 c 3.83317,-2.45892 8.96087,-1.2556 11.49705,2.69802 l 12.21308,19.03879 c 2.53618,3.95362 1.49203,9.11608 -2.34115,11.575 l -386.58711,247.98935 c -3.8332,2.45892 -8.9609,1.2556 -11.497,-2.69802 l -12.2131,-19.03879 c -2.5362,-3.95362 -1.492,-9.11608 2.3411,-11.575 z" id="rect906"/> <path style="opacity:1;fill:#dddee0;fill-opacity:1;fill-rule:evenodd;stroke:none;stroke-width:5.99505806;stroke-linecap:square;stroke-linejoin:miter;stroke-miterlimit:0;stroke-dasharray:none;stroke-dashoffset:0;stroke-opacity:1;paint-order:normal" d="m -1036.7339,398.13794 372.63819,-239.04139 c 5.22571,-3.3522 10.39552,-4.54996 11.5915,-2.68557 1.19599,1.86441 -2.04816,6.06407 -7.27386,9.41628 l -372.63823,239.04138 c -5.2257,3.3522 -10.3955,4.54996 -11.5915,2.68555 -1.196,-1.86439 2.0481,-6.06405 7.2739,-9.41625 z" id="rect916"/> <path style="color:#000000;font-style:normal;font-variant:normal;font-weight:normal;font-stretch:normal;font-size:medium;line-height:normal;font-family:sans-serif;font-variant-ligatures:normal;font-variant-position:normal;font-variant-caps:normal;font-variant-numeric:normal;font-variant-alternates:normal;font-feature-settings:normal;text-indent:0;text-align:start;text-decoration:none;text-decoration-line:none;text-decoration-style:solid;text-decoration-color:#000000;letter-spacing:normal;word-spacing:normal;text-transform:none;writing-mode:lr-tb;direction:ltr;text-orientation:mixed;dominant-baseline:auto;baseline-shift:baseline;text-anchor:start;white-space:normal;shape-padding:0;clip-rule:nonzero;display:inline;overflow:visible;visibility:visible;opacity:1;isolation:auto;mix-blend-mode:normal;color-interpolation:sRGB;color-interpolation-filters:linearRGB;solid-color:#000000;solid-opacity:1;vector-effect:none;fill:#fee2bd;fill-opacity:1;fill-rule:evenodd;stroke:none;stroke-width:20.99848366;stroke-linecap:square;stroke-linejoin:miter;stroke-miterlimit:0;stroke-dasharray:none;stroke-dashoffset:0;stroke-opacity:1;paint-order:normal;color-rendering:auto;image-rendering:auto;shape-rendering:auto;text-rendering:auto;enable-background:accumulate" d="m -616.26165,70.227955 c -23.92667,0 -55.41545,27.278891 -58.14406,51.600005 -2.4719,14.36768 20.99856,14.36768 20.99856,0 0,-14.30817 25.56704,-30.601443 37.1455,-30.601443 20.30846,0.745529 20.58131,-20.998562 0,-20.998562 z" id="rect1038"/> <path style="opacity:1;fill:#feaa23;fill-opacity:1;fill-rule:evenodd;stroke:none;stroke-width:7.26132059;stroke-linecap:square;stroke-linejoin:miter;stroke-miterlimit:0;stroke-dasharray:none;stroke-dashoffset:0;stroke-opacity:1;paint-order:normal" d="m -659.53541,138.55397 71.61961,-45.942818 c 10.70283,-6.865692 26.46788,-1.248983 35.34764,12.593558 8.87977,13.84254 7.41209,30.5138 -3.29074,37.37949 l -71.61962,45.94281 c -10.70283,6.8657 -26.46787,1.24895 -35.34763,-12.59359 -8.87977,-13.84254 -7.41209,-30.51376 3.29074,-37.37945 z" id="rect920"/> <path style="opacity:1;fill:#feaa23;fill-opacity:1;fill-rule:evenodd;stroke:none;stroke-width:10.54741955;stroke-linecap:square;stroke-linejoin:miter;stroke-miterlimit:0;stroke-dasharray:none;stroke-dashoffset:0;stroke-opacity:1;paint-order:normal" d="m -568.61749,58.000861 c 22.56789,-14.476935 52.39096,-7.963263 66.86788,14.604604 14.47694,22.567889 7.96329,52.390945 -14.6046,66.867885 -22.56789,14.47693 -52.39095,7.96328 -66.86788,-14.60461 -14.47692,-22.56787 -7.96329,-52.390944 14.6046,-66.867879 z" id="rect918"/> <path style="opacity:1;fill:#14183b;fill-opacity:1;fill-rule:evenodd;stroke:none;stroke-width:5.60972166;stroke-linecap:square;stroke-linejoin:miter;stroke-miterlimit:0;stroke-dasharray:none;stroke-dashoffset:0;stroke-opacity:1;paint-order:normal" d="m -556.38426,77.071367 c 12.00289,-7.699657 27.86451,-4.235321 35.56417,7.767564 7.69966,12.002885 4.23532,27.864509 -7.76756,35.564169 -12.00289,7.69965 -27.86451,4.23532 -35.56417,-7.76757 -7.69966,-12.00288 -4.23532,-27.864507 7.76756,-35.564163 z" id="rect922"/> <path style="opacity:1;fill:#f7924e;fill-opacity:1;fill-rule:evenodd;stroke:none;stroke-width:3.14087272;stroke-linecap:square;stroke-linejoin:miter;stroke-miterlimit:0;stroke-dasharray:none;stroke-dashoffset:0;stroke-opacity:1;paint-order:normal" d="m -550.26745,86.606376 c 6.72038,-4.311017 15.60128,-2.371361 19.91231,4.349045 4.31101,6.720383 2.37134,15.601289 -4.34905,19.912309 -6.7204,4.31103 -15.60129,2.37134 -19.91231,-4.34904 -4.31103,-6.72041 -2.37136,-15.601283 4.34905,-19.912314 z" id="rect924"/> <path style="opacity:1;fill:#304256;fill-opacity:1;fill-rule:evenodd;stroke:none;stroke-width:39.64317703;stroke-linecap:square;stroke-linejoin:miter;stroke-miterlimit:0;stroke-dasharray:none;stroke-dashoffset:0;stroke-opacity:1;paint-order:normal" d="m -266.43739,-397.51528 c 20.09498,0 36.27256,15.65521 36.27256,21.54417 v 35.53718 c 0,5.88895 -16.17758,23.1813 -36.27256,23.1813 -20.09496,0 -36.27257,-4.74093 -36.27257,-10.62988 v -59.00288 c 0,-5.88896 16.17761,-10.62989 36.27257,-10.62989 z" id="rect941"/> <path style="opacity:1;fill:#feaa23;fill-opacity:1;fill-rule:evenodd;stroke:none;stroke-width:9.66428089;stroke-linecap:square;stroke-linejoin:miter;stroke-miterlimit:4;stroke-dasharray:none;stroke-dashoffset:0;stroke-opacity:1;paint-order:normal" d="M 118.3558,499.73335 A 76.455837,76.455837 0 0 1 41.899988,576.18919 76.455837,76.455837 0 0 1 -34.555854,499.73335 76.455837,76.455837 0 0 1 41.899988,423.27751 76.455837,76.455837 0 0 1 118.3558,499.73335 Z" id="circle948"/> <path style="opacity:1;fill:#f7924e;fill-opacity:1;fill-rule:evenodd;stroke:none;stroke-width:39.64317703;stroke-linecap:square;stroke-linejoin:miter;stroke-miterlimit:0;stroke-dasharray:none;stroke-dashoffset:0;stroke-opacity:1;paint-order:normal" d="m 41.900563,423.27685 a 76.455839,76.455839 0 0 0 -76.45647,76.4565 76.455839,76.455839 0 0 0 0.450691,7.54089 H 117.97803 a 76.455839,76.455839 0 0 0 0.37702,-7.54089 76.455839,76.455839 0 0 0 -76.454461,-76.4565 z" id="rect988"/> <path id="path950" d="m 41.901321,406.31079 c -51.5107201,0 -93.41699,41.91401 -93.41699,93.42473 0,51.51074 41.9062699,93.41701 93.41699,93.41701 51.510668,0 93.416969,-41.90627 93.416969,-93.41701 0,-51.51072 -41.906301,-93.42473 -93.416969,-93.42473 z m 0,14.06097 c 43.915395,0 79.363789,35.44836 79.363789,79.36376 0,43.91544 -35.448394,79.36378 -79.363789,79.36378 -43.9154209,0 -79.363785,-35.44834 -79.363785,-79.36378 0,-43.9154 35.4483641,-79.36376 79.363785,-79.36376 z" style="color:#000000;font-style:normal;font-variant:normal;font-weight:normal;font-stretch:normal;font-size:medium;line-height:normal;font-family:sans-serif;font-variant-ligatures:normal;font-variant-position:normal;font-variant-caps:normal;font-variant-numeric:normal;font-variant-alternates:normal;font-feature-settings:normal;text-indent:0;text-align:start;text-decoration:none;text-decoration-line:none;text-decoration-style:solid;text-decoration-color:#000000;letter-spacing:normal;word-spacing:normal;text-transform:none;writing-mode:lr-tb;direction:ltr;text-orientation:mixed;dominant-baseline:auto;baseline-shift:baseline;text-anchor:start;white-space:normal;shape-padding:0;clip-rule:nonzero;display:inline;overflow:visible;visibility:visible;opacity:1;isolation:auto;mix-blend-mode:normal;color-interpolation:sRGB;color-interpolation-filters:linearRGB;solid-color:#000000;solid-opacity:1;vector-effect:none;fill:#304256;fill-opacity:1;fill-rule:evenodd;stroke:none;stroke-width:14.05390358;stroke-linecap:square;stroke-linejoin:miter;stroke-miterlimit:4;stroke-dasharray:none;stroke-dashoffset:0;stroke-opacity:1;paint-order:normal;color-rendering:auto;image-rendering:auto;shape-rendering:auto;text-rendering:auto;enable-background:accumulate"/> <path style="opacity:1;fill:#14183b;fill-opacity:1;fill-rule:evenodd;stroke:none;stroke-width:5.08932686;stroke-linecap:square;stroke-linejoin:miter;stroke-miterlimit:4;stroke-dasharray:none;stroke-dashoffset:0;stroke-opacity:1;paint-order:normal" d="M 82.162538,499.7335 A 40.262566,40.262566 0 0 1 41.899988,539.99608 40.262566,40.262566 0 0 1 1.6374113,499.7335 40.262566,40.262566 0 0 1 41.899988,459.47093 40.262566,40.262566 0 0 1 82.162538,499.7335 Z" id="circle952"/> <path style="opacity:1;fill:#f7924e;fill-opacity:1;fill-rule:evenodd;stroke:none;stroke-width:2.94645214;stroke-linecap:square;stroke-linejoin:miter;stroke-miterlimit:4;stroke-dasharray:none;stroke-dashoffset:0;stroke-opacity:1;paint-order:normal" d="M 65.209887,499.7335 A 23.309905,23.309905 0 0 1 41.899988,523.0434 23.309905,23.309905 0 0 1 18.590063,499.7335 23.309905,23.309905 0 0 1 41.899988,476.42361 23.309905,23.309905 0 0 1 65.209887,499.7335 Z" id="circle954"/> <path style="opacity:1;fill:#2b334a;fill-opacity:1;fill-rule:evenodd;stroke:none;stroke-width:39.64317703;stroke-linecap:square;stroke-linejoin:miter;stroke-miterlimit:0;stroke-dasharray:none;stroke-dashoffset:0;stroke-opacity:1;paint-order:normal" d="m -1067.7018,456.33842 h 79.11955 c 12.71567,0 22.95249,13.23981 22.95249,29.68566 v 30.1524 c 0,16.44586 -10.23682,29.68566 -22.95249,29.68566 h -79.11955 c -12.7156,0 -22.9525,-13.2398 -22.9525,-29.68566 v -30.1524 c 0,-16.44585 10.2369,-29.68566 22.9525,-29.68566 z" id="rect960"/> <path style="opacity:1;fill:#304256;fill-opacity:1;fill-rule:evenodd;stroke:none;stroke-width:39.64317703;stroke-linecap:square;stroke-linejoin:miter;stroke-miterlimit:0;stroke-dasharray:none;stroke-dashoffset:0;stroke-opacity:1;paint-order:normal" d="m -1018.3091,470.23013 h 803.0267 c 12.71569,0 22.95249,13.23978 22.95249,29.68563 v 2.3692 c 0,16.44585 -10.2368,29.68566 -22.95249,29.68566 h -803.0267 c -12.7156,0 -22.9525,-13.23981 -22.9525,-29.68566 v -2.3692 c 0,-16.44585 10.2369,-29.68563 22.9525,-29.68563 z" id="rect956"/> <path style="opacity:1;fill:#304256;fill-opacity:1;fill-rule:evenodd;stroke:none;stroke-width:10.54741955;stroke-linecap:square;stroke-linejoin:miter;stroke-miterlimit:0;stroke-dasharray:none;stroke-dashoffset:0;stroke-opacity:1;paint-order:normal" d="m -244.47989,460.36397 c 22.56787,-14.47692 52.39095,-7.96327 66.86788,14.60461 14.47693,22.56788 7.96327,52.39096 -14.6046,66.86788 -22.56789,14.47694 -52.39098,7.96329 -66.8679,-14.60459 -14.47693,-22.56788 -7.96327,-52.39096 14.60462,-66.8679 z" id="rect962"/> <path style="opacity:1;fill:#14183b;fill-opacity:1;fill-rule:evenodd;stroke:none;stroke-width:5.60972166;stroke-linecap:square;stroke-linejoin:miter;stroke-miterlimit:0;stroke-dasharray:none;stroke-dashoffset:0;stroke-opacity:1;paint-order:normal" d="m -232.24672,479.43437 c 12.00288,-7.69965 27.8645,-4.23532 35.56416,7.76757 7.69966,12.00289 4.23533,27.86451 -7.76756,35.56417 -12.00291,7.69967 -27.86451,4.23532 -35.56417,-7.76757 -7.69966,-12.00289 -4.23534,-27.8645 7.76757,-35.56417 z" id="rect964"/> <path style="opacity:1;fill:#f7924e;fill-opacity:1;fill-rule:evenodd;stroke:none;stroke-width:2.30066299;stroke-linecap:square;stroke-linejoin:miter;stroke-miterlimit:0;stroke-dasharray:none;stroke-dashoffset:0;stroke-opacity:1;paint-order:normal" d="m -224.04815,492.21444 c 4.92263,-3.15779 11.42782,-1.737 14.58561,3.18564 3.15779,4.92263 1.73699,11.42781 -3.18564,14.5856 -4.92263,3.15779 -11.42782,1.737 -14.58561,-3.18564 -3.15779,-4.92263 -1.73699,-11.42781 3.18564,-14.5856 z" id="rect966"/> <path style="opacity:1;fill:#feaa23;fill-opacity:1;fill-rule:evenodd;stroke:none;stroke-width:39.64317703;stroke-linecap:square;stroke-linejoin:miter;stroke-miterlimit:0;stroke-dasharray:none;stroke-dashoffset:0;stroke-opacity:1;paint-order:normal" d="m -683.74453,279.36755 c 14.29719,30.63961 45.33286,51.7768 81.492,51.7768 h 248.73704 317.664875 32.9663519 c 36.1590941,0 67.1932921,-21.13719 81.4899351,-51.7768 z" id="rect976"/> <path style="opacity:1;fill:#2b334a;fill-opacity:1;fill-rule:evenodd;stroke:none;stroke-width:32.36851883;stroke-linecap:square;stroke-linejoin:miter;stroke-miterlimit:0;stroke-dasharray:none;stroke-dashoffset:0;stroke-opacity:1;paint-order:normal" d="M -620.39643,274.73358 H 31.992855 c 6.556343,0 11.834528,3.44204 11.834528,7.71755 0,4.27555 -5.278185,7.71758 -11.834528,7.71758 H -620.39643 c -6.55634,0 -11.83453,-3.44203 -11.83453,-7.71758 0,-4.27551 5.27819,-7.71755 11.83453,-7.71755 z" id="rect970"/> <path style="opacity:1;fill:#2b334a;fill-opacity:1;fill-rule:evenodd;stroke:none;stroke-width:12.14400196;stroke-linecap:square;stroke-linejoin:miter;stroke-miterlimit:4;stroke-dasharray:none;stroke-dashoffset:0;stroke-opacity:1;paint-order:normal" d="m -505.1298,216.56188 h 92.347 c 3.84574,0 6.94177,3.09603 6.94177,6.94178 0,3.84577 -3.09603,6.9418 -6.94177,6.9418 h -92.347 c -3.84574,0 -6.94178,-3.09603 -6.94178,-6.9418 0,-3.84575 3.09604,-6.94178 6.94178,-6.94178 z" id="rect972"/> <path style="opacity:1;fill:#2b334a;fill-opacity:1;fill-rule:evenodd;stroke:none;stroke-width:12.14400196;stroke-linecap:square;stroke-linejoin:miter;stroke-miterlimit:4;stroke-dasharray:none;stroke-dashoffset:0;stroke-opacity:1;paint-order:normal" d="m -505.1298,162.53895 h 92.347 c 3.84574,0 6.94177,3.09603 6.94177,6.94178 0,3.84577 -3.09603,6.9418 -6.94177,6.9418 h -92.347 c -3.84574,0 -6.94178,-3.09603 -6.94178,-6.9418 0,-3.84575 3.09604,-6.94178 6.94178,-6.94178 z" id="rect974"/> <path style="opacity:1;fill:#fee2bd;fill-opacity:1;fill-rule:evenodd;stroke:none;stroke-width:38.84624863;stroke-linecap:square;stroke-linejoin:miter;stroke-miterlimit:0;stroke-dasharray:none;stroke-dashoffset:0;stroke-opacity:1;paint-order:normal" d="M -271.12974,-65.368654 H -2.3973879 c 8.0788277,0 14.5827499,4.708281 14.5827499,10.556683 v 5.126342 c 0,5.848402 -6.5039222,10.556682 -14.5827499,10.556682 H -271.12974 c -8.07886,0 -14.58278,-4.70828 -14.58278,-10.556682 v -5.126342 c 0,-5.848402 6.50392,-10.556683 14.58278,-10.556683 z" id="rect986"/> <path style="opacity:1;fill:#9ea3a7;fill-opacity:1;fill-rule:evenodd;stroke:none;stroke-width:41.09000397;stroke-linecap:square;stroke-linejoin:miter;stroke-miterlimit:0;stroke-dasharray:none;stroke-dashoffset:0;stroke-opacity:1;paint-order:normal" d="m -1103.5952,243.62262 h 23.6503 c 5.4663,0 9.867,4.1376 9.867,9.27714 0,5.13953 -4.4007,9.27714 -9.867,9.27714 h -23.6503 c -5.4663,0 -9.867,-4.13761 -9.867,-9.27714 0,-5.13954 4.4007,-9.27714 9.867,-9.27714 z" id="rect995"/> <path style="opacity:1;fill:#14183b;fill-opacity:1;fill-rule:evenodd;stroke:none;stroke-width:39.64317703;stroke-linecap:square;stroke-linejoin:miter;stroke-miterlimit:0;stroke-dasharray:none;stroke-dashoffset:0;stroke-opacity:1;paint-order:normal" d="m -989.81411,492.36886 h 704.97416 c 5.46632,0 9.867,3.89421 9.867,8.73141 0,4.83722 -4.40068,8.73144 -9.867,8.73144 h -704.97416 c -5.46632,0 -9.86699,-3.89422 -9.86699,-8.73144 0,-4.8372 4.40067,-8.73141 9.86699,-8.73141 z" id="rect997"/> <path style="opacity:1;fill:#14183b;fill-opacity:1;fill-rule:evenodd;stroke:none;stroke-width:39.64317703;stroke-linecap:square;stroke-linejoin:miter;stroke-miterlimit:0;stroke-dasharray:none;stroke-dashoffset:0;stroke-opacity:1;paint-order:normal" d="m -459.28617,341.21975 h 377.514827 c 5.466325,0 9.866999,2.27042 9.866999,5.09064 v 6.17405 c 0,2.82023 -4.400674,5.09065 -9.866999,5.09065 H -459.28617 c -5.46633,0 -9.867,-2.27042 -9.867,-5.09065 v -6.17405 c 0,-2.82022 4.40067,-5.09064 9.867,-5.09064 z" id="rect999"/> <path style="opacity:1;fill:#fee2bd;fill-opacity:1;fill-rule:evenodd;stroke:none;stroke-width:39.64317703;stroke-linecap:square;stroke-linejoin:miter;stroke-miterlimit:0;stroke-dasharray:none;stroke-dashoffset:0;stroke-opacity:1;paint-order:normal" d="m -530.36691,61.21768 a 12.142136,6.6849964 0 0 1 -12.14215,6.684977 12.142136,6.6849964 0 0 1 -12.14213,-6.684977 12.142136,6.6849964 0 0 1 12.14213,-6.685004 12.142136,6.6849964 0 0 1 12.14215,6.685004 z" id="path1008"/> <path style="opacity:1;fill:#9ea3a7;fill-opacity:1;fill-rule:evenodd;stroke:none;stroke-width:41.09000397;stroke-linecap:square;stroke-linejoin:miter;stroke-miterlimit:0;stroke-dasharray:none;stroke-dashoffset:0;stroke-opacity:1;paint-order:normal" d="m -486.19004,-86.689089 h 23.65026 c 5.46632,0 9.867,4.137602 9.867,9.277136 0,5.139534 -4.40068,9.277139 -9.867,9.277139 h -23.65026 c -5.46632,0 -9.867,-4.137605 -9.867,-9.277139 0,-5.139534 4.40068,-9.277136 9.867,-9.277136 z" id="rect1010"/> <path style="opacity:1;fill:#9ea3a7;fill-opacity:1;fill-rule:evenodd;stroke:none;stroke-width:79.1291275;stroke-linecap:square;stroke-linejoin:miter;stroke-miterlimit:0;stroke-dasharray:none;stroke-dashoffset:0;stroke-opacity:1;paint-order:normal" d="M -193.606,-371.36452 H 96.190069 c 1.883471,0 3.399734,1.51629 3.399734,3.39974 v 3.26548 c 0,1.88345 -1.516263,3.39974 -3.399734,3.39974 H -193.606 c -1.88347,0 -3.39976,-1.51629 -3.39976,-3.39974 v -3.26548 c 0,-1.88345 1.51629,-3.39974 3.39976,-3.39974 z" id="rect1012"/> <path style="opacity:1;fill:#fee2bd;fill-opacity:1;fill-rule:evenodd;stroke:none;stroke-width:39.64317703;stroke-linecap:square;stroke-linejoin:miter;stroke-miterlimit:0;stroke-dasharray:none;stroke-dashoffset:0;stroke-opacity:1;paint-order:normal" d="m -605.6963,117.82053 a 6.6849964,12.142136 66.222522 0 1 -8.41619,11.0131 6.6849964,12.142136 66.222522 0 1 -13.8068,-1.22203 6.6849964,12.142136 66.222522 0 1 8.41621,-11.0131 6.6849964,12.142136 66.222522 0 1 13.80678,1.22203 z" id="ellipse1025"/> <path style="color:#000000;font-style:normal;font-variant:normal;font-weight:normal;font-stretch:normal;font-size:medium;line-height:normal;font-family:sans-serif;font-variant-ligatures:normal;font-variant-position:normal;font-variant-caps:normal;font-variant-numeric:normal;font-variant-alternates:normal;font-feature-settings:normal;text-indent:0;text-align:start;text-decoration:none;text-decoration-line:none;text-decoration-style:solid;text-decoration-color:#000000;letter-spacing:normal;word-spacing:normal;text-transform:none;writing-mode:lr-tb;direction:ltr;text-orientation:mixed;dominant-baseline:auto;baseline-shift:baseline;text-anchor:start;white-space:normal;shape-padding:0;clip-rule:nonzero;display:inline;overflow:visible;visibility:visible;opacity:1;isolation:auto;mix-blend-mode:normal;color-interpolation:sRGB;color-interpolation-filters:linearRGB;solid-color:#000000;solid-opacity:1;vector-effect:none;fill:#304256;fill-opacity:1;fill-rule:evenodd;stroke:none;stroke-width:11.89295292;stroke-linecap:square;stroke-linejoin:miter;stroke-miterlimit:0;stroke-dasharray:none;stroke-dashoffset:0;stroke-opacity:1;paint-order:normal;color-rendering:auto;image-rendering:auto;shape-rendering:auto;text-rendering:auto;enable-background:accumulate" d="m -256.16496,-75.94523 c -23.49268,0 -42.59318,19.092789 -42.59318,42.585443 V 121.12473 c 0,23.49268 19.1005,42.58547 42.59318,42.58547 h 233.058515 c 23.49267977,0 42.593182,-19.09279 42.593182,-42.58547 V -33.359787 c 0,-23.492654 -19.10050223,-42.585443 -42.593182,-42.585443 z m 0,11.892962 h 233.058515 c 17.1096793,0 30.7002463,13.582801 30.7002463,30.692481 V 121.12473 c 0,17.10968 -13.590567,30.69251 -30.7002463,30.69251 H -256.16496 c -17.10968,0 -30.70025,-13.58283 -30.70025,-30.69251 V -33.359787 c 0,-17.10968 13.59057,-30.692481 30.70025,-30.692481 z" id="rect1048"/> <path style="opacity:1;fill:#2b334a;fill-opacity:1;fill-rule:evenodd;stroke:none;stroke-width:19.82158852;stroke-linecap:square;stroke-linejoin:miter;stroke-miterlimit:0;stroke-dasharray:none;stroke-dashoffset:0;stroke-opacity:1;paint-order:normal" d="m -71.793253,-14.432839 h 5.888674 c 14.61585,0 26.3824,11.7665446 26.3824,26.382389 v 19.7803 c 0,14.615836 -11.76655,26.382386 -26.3824,26.382386 h -5.888674 c -14.615849,0 -26.382399,-11.76655 -26.382399,-26.382386 v -19.7803 c 0,-14.6158444 11.76655,-26.382389 26.382399,-26.382389 z" id="rect1050"/> <path style="opacity:1;fill:#9ea3a7;fill-opacity:1;fill-rule:evenodd;stroke:none;stroke-width:10.1207552;stroke-linecap:square;stroke-linejoin:miter;stroke-miterlimit:0;stroke-dasharray:none;stroke-dashoffset:0;stroke-opacity:1;paint-order:normal" d="m -70.774454,-7.370543 h 3.850998 c 9.55833,0 17.253269,4.6907316 17.253269,10.517337 v 7.885414 c 0,5.826605 -7.694939,10.517337 -17.253269,10.517337 h -3.850998 c -9.558304,0 -17.253269,-4.690732 -17.253269,-10.517337 V 3.146794 c 0,-5.8266054 7.694965,-10.517337 17.253269,-10.517337 z" id="rect1052"/> <path style="opacity:1;fill:#304256;fill-opacity:1;fill-rule:evenodd;stroke:none;stroke-width:10.54741955;stroke-linecap:square;stroke-linejoin:miter;stroke-miterlimit:0;stroke-dasharray:none;stroke-dashoffset:0;stroke-opacity:1;paint-order:normal" d="m -1038.0003,361.01748 c 22.5678,-14.47693 52.3909,-7.96328 66.86783,14.60461 14.47692,22.56787 7.96329,52.39094 -14.6046,66.86788 -22.56783,14.47692 -52.39093,7.96326 -66.86793,-14.6046 -14.4769,-22.56789 -7.9632,-52.39096 14.6047,-66.86789 z" id="rect1060"/> <path style="opacity:1;fill:#14183b;fill-opacity:1;fill-rule:evenodd;stroke:none;stroke-width:5.60972166;stroke-linecap:square;stroke-linejoin:miter;stroke-miterlimit:0;stroke-dasharray:none;stroke-dashoffset:0;stroke-opacity:1;paint-order:normal" d="m -1025.7672,380.08792 c 12.0029,-7.69967 27.86446,-4.23532 35.56412,7.76757 7.69965,12.00288 4.23534,27.86449 -7.76757,35.56416 -12.00285,7.69966 -27.86455,4.23532 -35.56415,-7.76756 -7.6997,-12.00289 -4.2353,-27.86451 7.7676,-35.56417 z" id="rect1062"/> <path style="opacity:1;fill:#f7924e;fill-opacity:1;fill-rule:evenodd;stroke:none;stroke-width:2.30066299;stroke-linecap:square;stroke-linejoin:miter;stroke-miterlimit:0;stroke-dasharray:none;stroke-dashoffset:0;stroke-opacity:1;paint-order:normal" d="m -1017.5685,392.86787 c 4.9226,-3.15778 11.4278,-1.73699 14.5856,3.18564 3.15777,4.92263 1.737,11.4278 -3.1857,14.58559 -4.9226,3.15779 -11.4278,1.73701 -14.5856,-3.18562 -3.1578,-4.92263 -1.737,-11.42782 3.1857,-14.58561 z" id="rect1064"/> <path style="opacity:1;fill:#304256;fill-opacity:1;fill-rule:evenodd;stroke:none;stroke-width:10.54741955;stroke-linecap:square;stroke-linejoin:miter;stroke-miterlimit:0;stroke-dasharray:none;stroke-dashoffset:0;stroke-opacity:1;paint-order:normal" d="m -1029.269,458.15458 c 22.5679,-14.47693 52.39092,-7.96328 66.86785,14.60461 14.47692,22.56787 7.96329,52.39094 -14.6046,66.86788 -22.56787,14.47692 -52.39095,7.96326 -66.86785,-14.60461 -14.477,-22.56788 -7.9633,-52.39096 14.6046,-66.86788 z" id="rect1066"/> <path style="opacity:1;fill:#14183b;fill-opacity:1;fill-rule:evenodd;stroke:none;stroke-width:5.60972166;stroke-linecap:square;stroke-linejoin:miter;stroke-miterlimit:0;stroke-dasharray:none;stroke-dashoffset:0;stroke-opacity:1;paint-order:normal" d="m -1017.0359,477.22502 c 12.0029,-7.69967 27.86448,-4.23532 35.56414,7.76757 7.69965,12.00288 4.23534,27.86449 -7.76757,35.56416 -12.00287,7.69966 -27.86447,4.23532 -35.56417,-7.76756 -7.6997,-12.00289 -4.2353,-27.86451 7.7676,-35.56417 z" id="rect1068"/> <path style="opacity:1;fill:#f7924e;fill-opacity:1;fill-rule:evenodd;stroke:none;stroke-width:2.30066299;stroke-linecap:square;stroke-linejoin:miter;stroke-miterlimit:0;stroke-dasharray:none;stroke-dashoffset:0;stroke-opacity:1;paint-order:normal" d="m -1008.8372,490.005 c 4.9226,-3.15779 11.42781,-1.73702 14.58561,3.18564 3.15779,4.92263 1.73698,11.42779 -3.18565,14.58558 -4.92266,3.15779 -11.42776,1.73701 -14.58556,-3.18562 -3.1578,-4.92265 -1.737,-11.42782 3.1856,-14.5856 z" id="rect1070"/> <path style="opacity:1;fill:#9ea3a7;fill-opacity:1;fill-rule:evenodd;stroke:none;stroke-width:41.09000397;stroke-linecap:square;stroke-linejoin:miter;stroke-miterlimit:0;stroke-dasharray:none;stroke-dashoffset:0;stroke-opacity:1;paint-order:normal" d="m -279.91018,-393.38029 h 23.65026 c 5.46632,0 9.867,4.1376 9.867,9.27714 0,5.13953 -4.40068,9.27713 -9.867,9.27713 h -23.65026 c -5.46632,0 -9.867,-4.1376 -9.867,-9.27713 0,-5.13954 4.40068,-9.27714 9.867,-9.27714 z" id="rect1072"/> <path style="opacity:1;fill:#9ea3a7;fill-opacity:1;fill-rule:evenodd;stroke:none;stroke-width:30.65563774;stroke-linecap:square;stroke-linejoin:miter;stroke-miterlimit:0;stroke-dasharray:none;stroke-dashoffset:0;stroke-opacity:1;paint-order:normal" d="m -304.4047,-107.47705 -3.28349,17.336325 c -0.75892,4.006964 -4.40287,6.658348 -8.17029,5.944801 -3.76742,-0.713547 -6.18944,-4.513822 -5.43052,-8.520786 l 3.28349,-17.33633 c 0.75891,-4.00696 4.40287,-6.65834 8.17029,-5.9448 3.76742,0.71355 6.18943,4.51383 5.43052,8.52079 z" id="rect1074"/> <path style="opacity:1;fill:#9ea3a7;fill-opacity:1;fill-rule:evenodd;stroke:none;stroke-width:10.0369072;stroke-linecap:square;stroke-linejoin:miter;stroke-miterlimit:0;stroke-dasharray:none;stroke-dashoffset:0;stroke-opacity:1;paint-order:normal" d="m -1206.3737,551.20987 60.505,-23.27572 c 2.9928,-1.15131 6.3291,0.33121 7.4804,3.32404 l 0.2771,0.7203 c 1.1513,2.99283 -0.3312,6.32909 -3.3241,7.48041 l -60.5049,23.27572 c -2.9928,1.15132 -6.3291,-0.3312 -7.4804,-3.32403 l -0.2771,-0.7203 c -1.1513,-2.99283 0.3312,-6.3291 3.324,-7.48042 z" id="rect1096"/> <path style="opacity:1;fill:#14183b;fill-opacity:1;fill-rule:evenodd;stroke:none;stroke-width:3.87793922;stroke-linecap:square;stroke-linejoin:miter;stroke-miterlimit:0;stroke-dasharray:none;stroke-dashoffset:0;stroke-opacity:1;paint-order:normal" d="m 203.70618,621.73824 h 87.98023 c 7.26838,0 13.11985,5.85144 13.11985,13.11985 0,7.2684 -5.85147,13.11985 -13.11985,13.11985 h -87.98023 c -7.26841,0 -13.11985,-5.85145 -13.11985,-13.11985 0,-7.26841 5.85144,-13.11985 13.11985,-13.11985 z" id="rect1100"/> <path style="opacity:1;fill:#14183b;fill-opacity:1;fill-rule:evenodd;stroke:none;stroke-width:3.87793922;stroke-linecap:square;stroke-linejoin:miter;stroke-miterlimit:0;stroke-dasharray:none;stroke-dashoffset:0;stroke-opacity:1;paint-order:normal" d="m -1025.0867,621.73824 h 87.98019 c 7.2684,0 13.11985,5.85144 13.11985,13.11985 0,7.2684 -5.85145,13.11985 -13.11985,13.11985 h -87.98019 c -7.2684,0 -13.1199,-5.85145 -13.1199,-13.11985 0,-7.26841 5.8515,-13.11985 13.1199,-13.11985 z" id="rect1102"/> </g> </svg>