<?xml version="1.0" encoding="UTF-8" standalone="no"?>
<svg
   xmlns:dc="http://purl.org/dc/elements/1.1/"
   xmlns:cc="http://creativecommons.org/ns#"
   xmlns:rdf="http://www.w3.org/1999/02/22-rdf-syntax-ns#"
   xmlns:svg="http://www.w3.org/2000/svg"
   xmlns="http://www.w3.org/2000/svg"
   xmlns:sodipodi="http://sodipodi.sourceforge.net/DTD/sodipodi-0.dtd"
   xmlns:inkscape="http://www.inkscape.org/namespaces/inkscape"
   version="1.1"
   id="svg2"
   xml:space="preserve"
   width="422.84"
   height="225.62666"
   viewBox="0 0 422.84 225.62666"
   sodipodi:docname="excavatorSS.eps"><metadata
     id="metadata8"><rdf:RDF><cc:Work
         rdf:about=""><dc:format>image/svg+xml</dc:format><dc:type
           rdf:resource="http://purl.org/dc/dcmitype/StillImage" /></cc:Work></rdf:RDF></metadata><defs
     id="defs6" /><sodipodi:namedview
     pagecolor="#ffffff"
     bordercolor="#666666"
     borderopacity="1"
     objecttolerance="10"
     gridtolerance="10"
     guidetolerance="10"
     inkscape:pageopacity="0"
     inkscape:pageshadow="2"
     inkscape:window-width="640"
     inkscape:window-height="480"
     id="namedview4" /><g
     id="g10"
     inkscape:groupmode="layer"
     inkscape:label="ink_ext_XXXXXX"
     transform="matrix(1.3333333,0,0,-1.3333333,0,225.62667)"><g
       id="g12"
       transform="scale(0.1)"><path
         d="M 0,1692.16 H 3171.28 V 0 H 0 v 1692.16"
         style="fill:#ffffff;fill-opacity:1;fill-rule:nonzero;stroke:none"
         id="path14" /><path
         d="m 2641.42,184.719 c 0,0 -412.67,-44.547 -921.73,-44.547 -509.05,0 -921.725,44.547 -921.725,44.547 0,0 412.675,44.562 921.725,44.562 509.06,0 921.73,-44.562 921.73,-44.562"
         style="fill:#807e7d;fill-opacity:1;fill-rule:nonzero;stroke:none"
         id="path16" /><path
         d="m 846.09,1403.25 -12.918,-36.11 -5.063,-14.05 -92.238,-257.91 -14.582,5.21 -28.176,10.12 h -0.078 l -13.672,4.91 31.274,87.33 v 0.08 l 4.683,13.14 35.129,98.06 5.594,15.79 33.539,93.67 56.508,-20.24"
         style="fill:#d49900;fill-opacity:1;fill-rule:nonzero;stroke:none"
         id="path18" /><path
         d="m 721.289,1100.39 -89.066,-247.788 -28.254,10.121 89.144,247.787 28.176,-10.12"
         style="fill:#323c49;fill-opacity:1;fill-rule:nonzero;stroke:none"
         id="path20" /><path
         d="m 1554.67,1194.81 13.93,26.52 -548.67,288.3 -13.94,-26.52 548.68,-288.3"
         style="fill:#323c49;fill-opacity:1;fill-rule:nonzero;stroke:none"
         id="path22" /><path
         d="m 1579.38,1164.82 27.94,53.17 -371.52,195.21 -27.93,-53.16 371.51,-195.22"
         style="fill:#eeac00;fill-opacity:1;fill-rule:nonzero;stroke:none"
         id="path24" /><path
         d="M 1025.66,1552 V 1343.04 L 722.121,784.836 h -85.594 l 173.528,521.334 5.363,16.02 9.746,29.24 3.777,11.48 12.239,36.79 -61.946,18.05 32.559,54.77 213.867,79.48"
         style="fill:#eeac00;fill-opacity:1;fill-rule:nonzero;stroke:none"
         id="path26" /><path
         d="m 1590.69,911.352 -85.73,137.798 -542.065,199.47 -79.325,151.09 h 101.989 l 52.881,-49.1 584.82,-135.98 299.52,-311.079 -332.09,7.801"
         style="fill:#d49900;fill-opacity:1;fill-rule:nonzero;stroke:none"
         id="path28" /><path
         d="m 1607.32,1164.82 h -17.8 V 971.168 h 17.8 v 193.652"
         style="fill:#323c49;fill-opacity:1;fill-rule:nonzero;stroke:none"
         id="path30" /><path
         d="m 1616.25,1175.25 h -35.67 V 1053.1 h 35.67 v 122.15"
         style="fill:#1c242b;fill-opacity:1;fill-rule:nonzero;stroke:none"
         id="path32" /><path
         d="m 2216.09,552.59 h -604.65 v -51.961 h 604.65 v 51.961"
         style="fill:#26313b;fill-opacity:1;fill-rule:nonzero;stroke:none"
         id="path34" /><path
         d="m 2494.17,486.59 -9.2,-21.27 -53.12,6.95 -3.43,22.921 65.75,-8.601"
         style="fill:#12181c;fill-opacity:1;fill-rule:nonzero;stroke:none"
         id="path36" /><path
         d="m 2358.46,501.91 -8.44,-21.578 -53.32,5.039 -4.25,22.789 66.01,-6.25"
         style="fill:#12181c;fill-opacity:1;fill-rule:nonzero;stroke:none"
         id="path38" /><path
         d="m 2153.71,516.691 6.31,-22.3 53.57,-0.153 6.43,22.274 -66.31,0.179"
         style="fill:#12181c;fill-opacity:1;fill-rule:nonzero;stroke:none"
         id="path40" /><path
         d="m 2017.73,516.691 6.31,-22.3 53.57,-0.153 6.43,22.274 -66.31,0.179"
         style="fill:#12181c;fill-opacity:1;fill-rule:nonzero;stroke:none"
         id="path42" /><path
         d="m 1745.77,516.691 6.31,-22.3 53.57,-0.153 6.43,22.274 -66.31,0.179"
         style="fill:#12181c;fill-opacity:1;fill-rule:nonzero;stroke:none"
         id="path44" /><path
         d="m 1874.2,516.691 6.31,-22.3 53.56,-0.153 6.43,22.274 -66.3,0.179"
         style="fill:#12181c;fill-opacity:1;fill-rule:nonzero;stroke:none"
         id="path46" /><path
         d="m 1334.79,486.59 9.2,-21.27 53.12,6.95 3.42,22.921 -65.74,-8.601"
         style="fill:#12181c;fill-opacity:1;fill-rule:nonzero;stroke:none"
         id="path48" /><path
         d="m 1470.49,501.91 8.45,-21.578 53.32,5.039 4.25,22.789 -66.02,-6.25"
         style="fill:#12181c;fill-opacity:1;fill-rule:nonzero;stroke:none"
         id="path50" /><path
         d="m 1232.09,293.871 22.62,5.02 25.53,-47.09 -16.56,-16.223 -31.59,58.293"
         style="fill:#12181c;fill-opacity:1;fill-rule:nonzero;stroke:none"
         id="path52" /><path
         d="m 1307.15,202.488 12.11,19.774 51.6,-14.364 0.16,-23.179 -63.87,17.769"
         style="fill:#12181c;fill-opacity:1;fill-rule:nonzero;stroke:none"
         id="path54" /><path
         d="m 1234.34,379.051 22.99,-2.961 21.17,49.211 -17.96,14.66 -26.2,-60.91"
         style="fill:#12181c;fill-opacity:1;fill-rule:nonzero;stroke:none"
         id="path56" /><path
         d="m 2594.59,293.871 -22.63,5.02 -25.52,-47.09 16.56,-16.223 31.59,58.293"
         style="fill:#12181c;fill-opacity:1;fill-rule:nonzero;stroke:none"
         id="path58" /><path
         d="m 2519.53,201.648 -12.11,19.762 -51.6,-14.359 -0.17,-23.172 63.88,17.769"
         style="fill:#12181c;fill-opacity:1;fill-rule:nonzero;stroke:none"
         id="path60" /><path
         d="m 2392.61,184.719 -6.31,22.301 -53.57,0.152 -6.43,-22.274 66.31,-0.179"
         style="fill:#12181c;fill-opacity:1;fill-rule:nonzero;stroke:none"
         id="path62" /><path
         d="m 1895.27,184.719 -6.31,22.301 -53.56,0.152 -6.43,-22.274 66.3,-0.179"
         style="fill:#12181c;fill-opacity:1;fill-rule:nonzero;stroke:none"
         id="path64" /><path
         d="m 2020.86,184.719 -6.3,22.301 -53.57,0.152 -6.43,-22.274 66.3,-0.179"
         style="fill:#12181c;fill-opacity:1;fill-rule:nonzero;stroke:none"
         id="path66" /><path
         d="m 2141.74,184.719 -6.31,22.301 -53.57,0.152 -6.43,-22.274 66.31,-0.179"
         style="fill:#12181c;fill-opacity:1;fill-rule:nonzero;stroke:none"
         id="path68" /><path
         d="m 2270.16,184.719 -6.31,22.301 -53.56,0.152 -6.43,-22.274 66.3,-0.179"
         style="fill:#12181c;fill-opacity:1;fill-rule:nonzero;stroke:none"
         id="path70" /><path
         d="m 1767.47,184.719 -6.3,22.301 -53.57,0.152 -6.43,-22.274 66.3,-0.179"
         style="fill:#12181c;fill-opacity:1;fill-rule:nonzero;stroke:none"
         id="path72" /><path
         d="m 1675.24,516.691 -6.31,-22.3 -53.56,-0.153 -6.43,22.274 66.3,0.179"
         style="fill:#12181c;fill-opacity:1;fill-rule:nonzero;stroke:none"
         id="path74" /><path
         d="m 1632.12,184.719 -6.31,22.301 -53.56,0.152 -6.43,-22.274 66.3,-0.179"
         style="fill:#12181c;fill-opacity:1;fill-rule:nonzero;stroke:none"
         id="path76" /><path
         d="m 1497.4,184.719 -6.31,22.301 -53.56,0.152 -6.43,-22.274 66.3,-0.179"
         style="fill:#12181c;fill-opacity:1;fill-rule:nonzero;stroke:none"
         id="path78" /><path
         d="m 2593.92,380.559 -22.76,-4.387 -24.2,47.789 17,15.75 29.96,-59.152"
         style="fill:#12181c;fill-opacity:1;fill-rule:nonzero;stroke:none"
         id="path80" /><path
         d="m 1285.91,383.691 -0.2,-0.453 c -1.18,-2.797 -2.2,-5.687 -3.14,-8.609 l -0.67,-2.16 c -0.9,-3 -1.71,-5.981 -2.34,-9.039 -0.62,-3.059 -1.06,-6.168 -1.41,-9.321 l -0.24,-2.359 c -0.29,-3.18 -0.5,-6.391 -0.5,-9.648 v -7.813 c 0,-58.289 47.43,-105.719 105.72,-105.719 h 1062.7 c 58.29,0 105.71,47.43 105.71,105.719 v 7.813 c 0,3.257 -0.2,6.468 -0.49,9.636 l -0.24,2.41 c -0.35,3.102 -0.79,6.223 -1.41,9.274 -0.63,3.078 -1.44,6.047 -2.33,9 l -0.67,2.18 c -0.96,2.957 -1.97,5.839 -3.15,8.636 l -0.18,0.422 c -1.15,2.672 -2.44,5.25 -3.79,7.801 l -1.06,1.961 c -1.27,2.269 -2.56,4.488 -3.96,6.629 l -0.61,0.597 -0.65,1.282 c -1.55,2.242 -3.21,4.39 -4.92,6.5 l -1.43,1.75 c -1.83,2.16 -3.72,4.3 -5.71,6.32 l -0.38,0.379 c -2.12,2.121 -4.37,4.109 -6.67,6.051 l -1.72,1.422 c -2.29,1.847 -4.62,3.636 -7.06,5.289 l -0.25,0.179 c -1.85,1.239 -3.74,2.442 -5.67,3.571 l -1.77,0.929 c -0.96,0.539 -1.98,1.071 -3.01,1.602 -1.84,0.949 -3.69,1.848 -5.57,2.687 -1.1,0.493 -2.16,0.961 -3.25,1.411 -2,0.808 -4.09,1.55 -6.19,2.261 l -2.83,0.969 c -2.56,0.781 -5.17,1.488 -7.82,2.082 h -0.21 l -1.85,0.438 c -4.66,0.949 -10.35,1.589 -16.86,1.832 l -1,0.07 c -57.43,5.976 -221.2,21.637 -233.46,22.808 h -601.78 c -12.27,-1.171 -176.03,-16.82 -233.46,-22.808 l -1,-0.07 c -6.51,-0.243 -12.2,-0.883 -17.4,-1.954 l -1.06,-0.218 c -2.81,-0.61 -5.56,-1.36 -8.29,-2.192 l -2.85,-0.968 c -2.07,-0.688 -4.16,-1.442 -6.21,-2.27 -1.05,-0.43 -2.12,-0.91 -3.2,-1.391 -1.87,-0.839 -3.74,-1.73 -5.58,-2.687 -0.99,-0.512 -2.02,-1.043 -3.02,-1.613 l -1.39,-0.739 c -2.3,-1.32 -4.19,-2.511 -6.04,-3.761 l -0.44,-0.297 c -2.33,-1.582 -4.62,-3.34 -6.85,-5.16 l -1.75,-1.43 c -2.28,-1.934 -4.54,-3.934 -6.66,-6.051 -2.14,-2.141 -4.14,-4.391 -6.08,-6.699 l -1.45,-1.762 c -1.84,-2.289 -3.67,-4.648 -5.34,-7.129 l -0.79,-1.172 c -1.4,-2.16 -2.71,-4.398 -3.97,-6.66 l -1.09,-2.008 c -1.34,-2.519 -2.62,-5.089 -3.76,-7.75 z M 2445.83,198.352 h -1062.7 c -74.95,0 -135.93,60.988 -135.93,135.937 v 7.813 c 0,3.769 0.19,7.699 0.62,12.367 l 0.31,3.062 c 0.51,4.539 1.09,8.34 1.83,11.938 0.73,3.582 1.67,7.269 2.98,11.621 l 0.87,2.82 c 1.3,4.02 2.52,7.371 3.81,10.488 l 0.28,0.653 c 1.4,3.301 3.01,6.648 5.07,10.551 l 1.41,2.578 c 1.88,3.379 3.86,6.718 6.04,9.929 l 0.82,1.2 c 1.94,2.781 4,5.472 6.13,8.113 l 1.83,2.207 c 2.5,2.973 5.08,5.859 7.82,8.601 2.73,2.731 5.61,5.301 8.56,7.79 l 2.27,1.871 c 2.96,2.398 6.05,4.75 9.27,6.918 l 0.45,0.312 c 2.21,1.481 4.54,2.949 6.91,4.34 0.63,0.359 1.23,0.68 1.85,1 1.66,0.91 2.97,1.598 4.29,2.277 2.38,1.231 4.77,2.383 7.19,3.473 1.37,0.598 2.71,1.199 4.08,1.758 2.67,1.09 5.36,2.051 8.07,2.961 l 1.01,0.351 c 0.88,0.309 1.76,0.617 2.66,0.891 4.19,1.269 8.1,2.277 11.91,3.066 l 1.61,0.313 c 6.19,1.187 12.9,1.929 20.34,2.23 59.96,6.239 232.21,22.688 233.95,22.848 l 1.43,0.07 604.65,-0.07 c 1.74,-0.16 173.99,-16.617 233.95,-22.848 7.4,-0.301 14.07,-1.031 20.34,-2.23 l 1.61,-0.313 c 3.81,-0.789 7.71,-1.797 11.93,-3.078 0.9,-0.269 1.78,-0.578 2.65,-0.89 l 0.99,-0.34 c 2.72,-0.91 5.41,-1.871 8.04,-2.942 1.42,-0.578 2.77,-1.179 4.13,-1.789 2.41,-1.07 4.8,-2.219 7.15,-3.449 1.32,-0.68 2.63,-1.371 3.94,-2.102 1.02,-0.527 1.62,-0.839 2.2,-1.179 2.35,-1.379 4.62,-2.797 6.85,-4.289 l 0.92,-0.629 c 2.84,-1.922 5.93,-4.262 8.94,-6.692 l 2.22,-1.839 c 2.74,-2.309 5.4,-4.68 7.95,-7.18 l 0.62,-0.621 c 2.73,-2.731 5.3,-5.61 7.79,-8.559 l 1.85,-2.25 c 2.11,-2.609 4.16,-5.281 6.09,-8.051 l 0.86,-1.238 c 0.12,-0.18 0.25,-0.371 0.37,-0.551 l 0.13,-0.211 c 1.98,-2.98 3.81,-6.058 5.56,-9.199 l 1.37,-2.539 c 2.09,-3.93 3.7,-7.281 5.09,-10.57 l 0.23,-0.551 c 1.32,-3.168 2.55,-6.551 3.86,-10.59 0.29,-0.91 0.6,-1.89 0.89,-2.871 1.29,-4.309 2.23,-7.988 2.96,-11.551 0.74,-3.609 1.32,-7.418 1.84,-11.988 l 0.31,-3.039 c 0.42,-4.66 0.61,-8.59 0.61,-12.359 v -7.813 c 0,-74.949 -60.98,-135.937 -135.93,-135.937"
         style="fill:#323c49;fill-opacity:1;fill-rule:nonzero;stroke:none"
         id="path82" /><path
         d="m 2566.1,353.102 c -0.08,0.91 -0.18,1.808 -0.28,2.707 -0.4,3.589 -0.91,7.152 -1.62,10.64 v 0.012 c -0.72,3.5 -1.64,6.918 -2.65,10.301 -0.25,0.84 -0.51,1.679 -0.79,2.519 -1.08,3.34 -2.24,6.641 -3.6,9.848 0,0.012 -0.01,0.019 -0.01,0.031 -1.36,3.199 -2.9,6.309 -4.52,9.371 -0.4,0.758 -0.81,1.52 -1.23,2.278 -1.69,3.023 -3.45,5.992 -5.38,8.851 0,0 -0.01,0.012 -0.01,0.02 -1.93,2.851 -4.02,5.582 -6.17,8.25 -0.54,0.66 -1.09,1.332 -1.64,1.98 -2.22,2.629 -4.5,5.199 -6.93,7.629 -0.01,0.012 -0.02,0.012 -0.03,0.02 -2.42,2.421 -4.98,4.703 -7.6,6.91 -0.66,0.551 -1.32,1.101 -1.98,1.64 -2.68,2.161 -5.41,4.25 -8.27,6.18 -0.02,0.012 -0.05,0.031 -0.08,0.051 -2.11,1.422 -4.27,2.789 -6.47,4.082 -0.65,0.379 -1.33,0.687 -1.99,1.058 -1.15,0.641 -2.32,1.25 -3.49,1.86 -2.09,1.09 -4.22,2.109 -6.38,3.07 -1.21,0.539 -2.42,1.078 -3.65,1.578 -2.34,0.961 -4.72,1.813 -7.13,2.614 -1.08,0.367 -2.14,0.769 -3.23,1.097 -3.48,1.063 -7.01,2 -10.61,2.742 -0.02,0 -0.07,0.008 -0.09,0.008 -6.44,1.332 -13.1,2 -19.87,2.25 -60.13,6.262 -234.32,22.891 -234.32,22.891 h -603.21 c 0,0 -174.18,-16.629 -234.31,-22.891 -6.77,-0.25 -13.43,-0.918 -19.87,-2.25 -0.02,0 -0.07,-0.008 -0.09,-0.008 -3.6,-0.742 -7.13,-1.679 -10.61,-2.742 -1.09,-0.328 -2.15,-0.73 -3.23,-1.09 -2.41,-0.808 -4.79,-1.66 -7.13,-2.621 -1.23,-0.5 -2.44,-1.039 -3.65,-1.578 -2.17,-0.961 -4.29,-1.98 -6.38,-3.07 -1.17,-0.61 -2.34,-1.219 -3.49,-1.86 -0.66,-0.371 -1.34,-0.679 -1.99,-1.058 -2.21,-1.301 -4.37,-2.66 -6.49,-4.094 -0.02,-0.019 -0.04,-0.027 -0.06,-0.039 -2.86,-1.93 -5.6,-4.019 -8.27,-6.187 -0.67,-0.532 -1.32,-1.082 -1.98,-1.633 -2.62,-2.207 -5.19,-4.489 -7.62,-6.918 l -0.01,-0.012 c -2.43,-2.43 -4.72,-5 -6.93,-7.629 -0.55,-0.66 -1.1,-1.308 -1.63,-1.98 -2.16,-2.66 -4.24,-5.391 -6.16,-8.239 -0.01,-0.011 -0.02,-0.019 -0.03,-0.043 -1.93,-2.847 -3.69,-5.816 -5.38,-8.839 -0.42,-0.758 -0.83,-1.508 -1.23,-2.278 -1.62,-3.062 -3.16,-6.16 -4.52,-9.371 0,-0.012 -0.01,-0.019 -0.01,-0.031 -1.36,-3.207 -2.53,-6.508 -3.61,-9.848 -0.27,-0.84 -0.53,-1.679 -0.78,-2.519 -1.01,-3.383 -1.93,-6.801 -2.65,-10.301 v -0.012 c -0.71,-3.488 -1.22,-7.051 -1.63,-10.64 -0.1,-0.899 -0.19,-1.797 -0.27,-2.707 -0.33,-3.622 -0.55,-7.282 -0.55,-11 v -7.813 c 0,-66.73 54.09,-120.828 120.82,-120.828 h 1062.7 c 66.73,0 120.82,54.098 120.82,120.828 v 7.813 c 0,3.718 -0.22,7.378 -0.55,11"
         style="fill:#12181c;fill-opacity:1;fill-rule:nonzero;stroke:none"
         id="path84" /><path
         d="m 2550.32,338.199 c 0,-61.687 -50.01,-111.699 -111.7,-111.699 -61.69,0 -111.7,50.012 -111.7,111.699 0,61.692 50.01,111.692 111.7,111.692 61.69,0 111.7,-50 111.7,-111.692"
         style="fill:#1c242b;fill-opacity:1;fill-rule:nonzero;stroke:none"
         id="path86" /><path
         d="m 2524.77,338.199 c 0,-47.578 -38.57,-86.148 -86.15,-86.148 -47.57,0 -86.14,38.57 -86.14,86.148 0,47.571 38.57,86.141 86.14,86.141 47.58,0 86.15,-38.57 86.15,-86.141"
         style="fill:#323c49;fill-opacity:1;fill-rule:nonzero;stroke:none"
         id="path88" /><path
         d="m 2508.29,338.199 c 0,-38.48 -31.19,-69.668 -69.67,-69.668 -38.47,0 -69.67,31.188 -69.67,69.668 0,38.473 31.2,69.672 69.67,69.672 38.48,0 69.67,-31.199 69.67,-69.672"
         style="fill:#1c242b;fill-opacity:1;fill-rule:nonzero;stroke:none"
         id="path90" /><path
         d="m 2433.52,296.551 -5.1,-8.832 5.1,-8.828 h 10.2 l 5.1,8.828 -5.1,8.832 h -10.2"
         style="fill:#323c49;fill-opacity:1;fill-rule:nonzero;stroke:none"
         id="path92" /><path
         d="m 2433.52,379.84 -5.1,8.832 5.1,8.828 h 10.2 l 5.1,-8.828 -5.1,-8.832 h -10.2"
         style="fill:#323c49;fill-opacity:1;fill-rule:nonzero;stroke:none"
         id="path94" /><path
         d="m 2487.11,324.93 5.1,-8.828 -5.1,-8.832 h -10.19 l -5.1,8.832 5.1,8.828 h 10.19"
         style="fill:#323c49;fill-opacity:1;fill-rule:nonzero;stroke:none"
         id="path96" /><path
         d="m 2487.11,351.461 5.1,8.828 -5.1,8.832 h -10.19 l -5.1,-8.832 5.1,-8.828 h 10.19"
         style="fill:#323c49;fill-opacity:1;fill-rule:nonzero;stroke:none"
         id="path98" /><path
         d="m 2466.99,338.199 c 0,-16.48 -13.36,-29.84 -29.83,-29.84 -16.48,0 -29.84,13.36 -29.84,29.84 0,16.473 13.36,29.832 29.84,29.832 16.47,0 29.83,-13.359 29.83,-29.832"
         style="fill:#323c49;fill-opacity:1;fill-rule:nonzero;stroke:none"
         id="path100" /><path
         d="M 2437.16,308.359 H 1391.8 v 59.672 h 1045.36 v -59.672"
         style="fill:#323c49;fill-opacity:1;fill-rule:nonzero;stroke:none"
         id="path102" /><path
         d="m 1503.5,338.199 c 0,-61.687 -50.01,-111.699 -111.7,-111.699 -61.69,0 -111.7,50.012 -111.7,111.699 0,61.692 50.01,111.692 111.7,111.692 61.69,0 111.7,-50 111.7,-111.692"
         style="fill:#1c242b;fill-opacity:1;fill-rule:nonzero;stroke:none"
         id="path104" /><path
         d="m 1477.95,338.199 c 0,-47.578 -38.57,-86.148 -86.15,-86.148 -47.57,0 -86.14,38.57 -86.14,86.148 0,47.571 38.57,86.141 86.14,86.141 47.58,0 86.15,-38.57 86.15,-86.141"
         style="fill:#323c49;fill-opacity:1;fill-rule:nonzero;stroke:none"
         id="path106" /><path
         d="m 1461.47,338.199 c 0,-38.48 -31.19,-69.668 -69.67,-69.668 -38.47,0 -69.67,31.188 -69.67,69.668 0,38.473 31.2,69.672 69.67,69.672 38.48,0 69.67,-31.199 69.67,-69.672"
         style="fill:#1c242b;fill-opacity:1;fill-rule:nonzero;stroke:none"
         id="path108" /><path
         d="m 1386.7,296.551 -5.09,-8.832 5.09,-8.828 h 10.2 l 5.1,8.828 -5.1,8.832 h -10.2"
         style="fill:#323c49;fill-opacity:1;fill-rule:nonzero;stroke:none"
         id="path110" /><path
         d="m 1343.31,324.93 -5.1,-8.828 5.1,-8.832 h 10.2 l 5.1,8.832 -5.1,8.828 h -10.2"
         style="fill:#323c49;fill-opacity:1;fill-rule:nonzero;stroke:none"
         id="path112" /><path
         d="m 1386.7,379.84 -5.09,8.832 5.09,8.828 h 10.2 l 5.1,-8.828 -5.1,-8.832 h -10.2"
         style="fill:#323c49;fill-opacity:1;fill-rule:nonzero;stroke:none"
         id="path114" /><path
         d="m 1343.31,351.461 -5.1,8.828 5.1,8.832 h 10.2 l 5.1,-8.832 -5.1,-8.828 h -10.2"
         style="fill:#323c49;fill-opacity:1;fill-rule:nonzero;stroke:none"
         id="path116" /><path
         d="m 1440.29,324.93 5.1,-8.828 -5.1,-8.832 h -10.19 l -5.1,8.832 5.1,8.828 h 10.19"
         style="fill:#323c49;fill-opacity:1;fill-rule:nonzero;stroke:none"
         id="path118" /><path
         d="m 1440.29,351.461 5.1,8.828 -5.1,8.832 h -10.19 l -5.1,-8.832 5.1,-8.828 h 10.19"
         style="fill:#323c49;fill-opacity:1;fill-rule:nonzero;stroke:none"
         id="path120" /><path
         d="m 1420.13,338.199 c 0,-15.648 -12.68,-28.328 -28.33,-28.328 -15.64,0 -28.33,12.68 -28.33,28.328 0,15.641 12.69,28.332 28.33,28.332 15.65,0 28.33,-12.691 28.33,-28.332"
         style="fill:#323c49;fill-opacity:1;fill-rule:nonzero;stroke:none"
         id="path122" /><path
         d="M 1568.03,290.941 V 255.77 c 0,-16.161 13.11,-29.27 29.27,-29.27 16.17,0 29.28,13.109 29.28,29.27 h 47.21 c 0,-16.161 13.11,-29.27 29.28,-29.27 16.16,0 29.27,13.109 29.27,29.27 h 47.22 c 0,-16.161 13.1,-29.27 29.27,-29.27 16.17,0 29.27,13.109 29.27,29.27 h 47.22 c 0,-16.161 13.1,-29.27 29.27,-29.27 16.17,0 29.28,13.109 29.28,29.27 h 47.21 c 0,-16.161 13.11,-29.27 29.28,-29.27 16.16,0 29.27,13.109 29.27,29.27 h 47.21 v 0 c 0,-16.141 13.08,-29.219 29.22,-29.219 16.14,0 29.22,13.078 29.22,29.219 v 0 h 47.21 v 0 c 0,-16.141 13.08,-29.219 29.22,-29.219 16.14,0 29.22,13.078 29.22,29.219 0,9.082 0,35.171 0,35.171 h -692.9"
         style="fill:#323c49;fill-opacity:1;fill-rule:nonzero;stroke:none"
         id="path124" /><path
         d="m 1613.93,255.77 c 0,-9.18 -7.44,-16.622 -16.63,-16.622 -9.18,0 -16.62,7.442 -16.62,16.622 0,9.191 7.44,16.628 16.62,16.628 9.19,0 16.63,-7.437 16.63,-16.628"
         style="fill:#12181c;fill-opacity:1;fill-rule:nonzero;stroke:none"
         id="path126" /><path
         d="m 1719.69,255.77 c 0,-9.18 -7.44,-16.622 -16.62,-16.622 -9.19,0 -16.63,7.442 -16.63,16.622 0,9.191 7.44,16.628 16.63,16.628 9.18,0 16.62,-7.437 16.62,-16.628"
         style="fill:#12181c;fill-opacity:1;fill-rule:nonzero;stroke:none"
         id="path128" /><path
         d="m 1825.46,255.77 c 0,-9.18 -7.45,-16.622 -16.63,-16.622 -9.18,0 -16.63,7.442 -16.63,16.622 0,9.191 7.45,16.628 16.63,16.628 9.18,0 16.63,-7.437 16.63,-16.628"
         style="fill:#12181c;fill-opacity:1;fill-rule:nonzero;stroke:none"
         id="path130" /><path
         d="m 1931.22,255.77 c 0,-9.18 -7.44,-16.622 -16.63,-16.622 -9.18,0 -16.62,7.442 -16.62,16.622 0,9.191 7.44,16.628 16.62,16.628 9.19,0 16.63,-7.437 16.63,-16.628"
         style="fill:#12181c;fill-opacity:1;fill-rule:nonzero;stroke:none"
         id="path132" /><path
         d="m 2036.98,255.77 c 0,-9.18 -7.44,-16.622 -16.63,-16.622 -9.18,0 -16.62,7.442 -16.62,16.622 0,9.191 7.44,16.628 16.62,16.628 9.19,0 16.63,-7.437 16.63,-16.628"
         style="fill:#12181c;fill-opacity:1;fill-rule:nonzero;stroke:none"
         id="path134" /><path
         d="m 2142.68,255.77 c 0,-9.18 -7.44,-16.622 -16.62,-16.622 -9.19,0 -16.63,7.442 -16.63,16.622 0,9.191 7.44,16.628 16.63,16.628 9.18,0 16.62,-7.437 16.62,-16.628"
         style="fill:#12181c;fill-opacity:1;fill-rule:nonzero;stroke:none"
         id="path136" /><path
         d="m 2248.33,255.77 c 0,-9.18 -7.44,-16.622 -16.62,-16.622 -9.19,0 -16.63,7.442 -16.63,16.622 0,9.191 7.44,16.628 16.63,16.628 9.18,0 16.62,-7.437 16.62,-16.628"
         style="fill:#12181c;fill-opacity:1;fill-rule:nonzero;stroke:none"
         id="path138" /><path
         d="m 1645.92,440.922 c 0,-18.262 -14.79,-33.051 -33.05,-33.051 -18.25,0 -33.05,14.789 -33.05,33.051 0,18.25 14.8,33.047 33.05,33.047 18.26,0 33.05,-14.797 33.05,-33.047"
         style="fill:#323c49;fill-opacity:1;fill-rule:nonzero;stroke:none"
         id="path140" /><path
         d="m 1628.3,440.922 c 0,-8.524 -6.91,-15.434 -15.43,-15.434 -8.52,0 -15.42,6.91 -15.42,15.434 0,8.508 6.9,15.418 15.42,15.418 8.52,0 15.43,-6.91 15.43,-15.418"
         style="fill:#12181c;fill-opacity:1;fill-rule:nonzero;stroke:none"
         id="path142" /><path
         d="m 2183.03,440.922 c 0,-18.262 14.8,-33.051 33.06,-33.051 18.25,0 33.05,14.789 33.05,33.051 0,18.25 -14.8,33.047 -33.05,33.047 -18.26,0 -33.06,-14.797 -33.06,-33.047"
         style="fill:#323c49;fill-opacity:1;fill-rule:nonzero;stroke:none"
         id="path144" /><path
         d="m 2200.66,440.922 c 0,-8.524 6.91,-15.434 15.43,-15.434 8.51,0 15.42,6.91 15.42,15.434 0,8.508 -6.91,15.418 -15.42,15.418 -8.52,0 -15.43,-6.91 -15.43,-15.418"
         style="fill:#12181c;fill-opacity:1;fill-rule:nonzero;stroke:none"
         id="path146" /><path
         d="m 2200.66,440.922 c 0,-8.524 6.91,-15.434 15.42,-15.434 8.52,0 15.43,6.91 15.43,15.434 0,8.508 -6.91,15.418 -15.43,15.418 -8.51,0 -15.42,-6.91 -15.42,-15.418"
         style="fill:#12181c;fill-opacity:1;fill-rule:nonzero;stroke:none"
         id="path148" /><path
         d="m 2183.03,411.18 h -530.7 v -27.071 h 530.7 v 27.071"
         style="fill:#323c49;fill-opacity:1;fill-rule:nonzero;stroke:none"
         id="path150" /><path
         d="M 1889.98,574.699 H 1675.24 V 552.59 h 214.74 v 22.109"
         style="fill:#1c242b;fill-opacity:1;fill-rule:nonzero;stroke:none"
         id="path152" /><path
         d="m 1903.2,596.809 h -241.18 v -22.11 h 241.18 v 22.11"
         style="fill:#26313b;fill-opacity:1;fill-rule:nonzero;stroke:none"
         id="path154" /><path
         d="M 2550.63,623.969 H 1614.24 V 596.68 h 936.39 v 27.289"
         style="fill:#12181c;fill-opacity:1;fill-rule:nonzero;stroke:none"
         id="path156" /><path
         d="M 1614.24,623.969 1579.82,656 v 336.488 l 34.42,56.662 h 359.78 l 46.84,-138.814 h 498.97 l 30.8,-286.367 h -936.39"
         style="fill:#ffc600;fill-opacity:1;fill-rule:nonzero;stroke:none"
         id="path158" /><path
         d="m 2020.86,910.336 -46.84,138.814 h -359.78 l -34.42,-56.662 V 656 l 34.42,-32.031 h 303.44 v 116.39 l 103.18,0.102 v 169.875"
         style="fill:#eeac00;fill-opacity:1;fill-rule:nonzero;stroke:none"
         id="path160" /><path
         d="M 1962.92,888.734 1792.26,751.691 h -157.51 v 208.278 l 23.34,37.695 h 267.81 l 37.02,-108.93"
         style="fill:#8dc4b7;fill-opacity:1;fill-rule:nonzero;stroke:none"
         id="path162" /><path
         d="m 1634.76,751.691 95.63,245.942 h 62.08 l -87.89,-245.942 h -69.82"
         style="fill:#e5ebbc;fill-opacity:1;fill-rule:nonzero;stroke:none"
         id="path164" /><path
         d="m 1798.43,646.281 h -181.01 v 82.629 h 181.01 z m -163.33,125.75 h 51.89 l 21.09,31.477 h 84.75 V 751.75 l -0.22,-0.18 H 1635.1 Z m 0,187.817 23.34,37.699 h 134.39 V 824.285 H 1635.1 Z m 179.19,37.699 h 111.96 l 21.66,-64.988 -37.12,-16.364 v -67.187 l -96.5,-79.559 z m -12.08,-268.188 185.84,158.196 -42.91,131.295 h -300.37 l -31.12,-47.893 V 729.695 728.91 642.512 h 188.56 v 4.867 h 7.22 v 22.672 h -7.22 v 31.945 h 7.22 v 22.664 h -7.22 v 4.699"
         style="fill:#1c242b;fill-opacity:1;fill-rule:nonzero;stroke:none"
         id="path166" /><path
         d="m 1813.94,769.574 76.04,228.059 h 35.88 l -55.96,-181.938 -55.96,-46.121"
         style="fill:#e5ebbc;fill-opacity:1;fill-rule:nonzero;stroke:none"
         id="path168" /><path
         d="m 1676.8,788.875 h -35.49 v 14.438 h 45.64 l -10.15,-14.438"
         style="fill:#323c49;fill-opacity:1;fill-rule:nonzero;stroke:none"
         id="path170" /><path
         d="m 1641.31,796.094 h 40.56 l 5.08,7.219 h -45.64 v -7.219"
         style="fill:#ffc600;fill-opacity:1;fill-rule:nonzero;stroke:none"
         id="path172" /><path
         d="m 1806.05,705.773 h -4.2 v 15.344 h 4.2 v -15.344"
         style="fill:#eeac00;fill-opacity:1;fill-rule:nonzero;stroke:none"
         id="path174" /><path
         d="m 2130.78,978.324 -103.29,-51.109 -6.63,-16.879 V 740.934 h -103.18 v -58.786 h 103.18 v -58.179 h 6.04 v 286.41 l 413.61,-0.043 v 67.988 h -309.73"
         style="fill:#1c242b;fill-opacity:1;fill-rule:nonzero;stroke:none"
         id="path176" /><path
         d="m 1806.05,651.16 h -4.2 v 15.352 h 4.2 V 651.16"
         style="fill:#eeac00;fill-opacity:1;fill-rule:nonzero;stroke:none"
         id="path178" /><path
         d="m 1944.26,913.855 -22.88,-10.304 v 5.297 l 22.88,10.304 v -5.297"
         style="fill:#ffc600;fill-opacity:1;fill-rule:nonzero;stroke:none"
         id="path180" /><path
         d="m 1944.26,903.457 -22.88,-10.309 v 5.297 l 22.88,10.305 v -5.293"
         style="fill:#ffc600;fill-opacity:1;fill-rule:nonzero;stroke:none"
         id="path182" /><path
         d="m 1944.26,893.055 -22.88,-10.305 v 5.293 l 22.88,10.309 v -5.297"
         style="fill:#ffc600;fill-opacity:1;fill-rule:nonzero;stroke:none"
         id="path184" /><path
         d="m 2130.77,978.324 h 309.74 v -67.988 h -309.74 v 67.988"
         style="fill:#323c49;fill-opacity:1;fill-rule:nonzero;stroke:none"
         id="path186" /><path
         d="m 2167.92,925.285 h -7.56 v 38.09 h 7.56 v -38.09"
         style="fill:#1c242b;fill-opacity:1;fill-rule:nonzero;stroke:none"
         id="path188" /><path
         d="m 2183.03,925.285 h -7.56 v 38.09 h 7.56 v -38.09"
         style="fill:#1c242b;fill-opacity:1;fill-rule:nonzero;stroke:none"
         id="path190" /><path
         d="m 2198.14,925.285 h -7.56 v 38.09 h 7.56 v -38.09"
         style="fill:#1c242b;fill-opacity:1;fill-rule:nonzero;stroke:none"
         id="path192" /><path
         d="m 2213.24,925.285 h -7.55 v 38.09 h 7.55 v -38.09"
         style="fill:#1c242b;fill-opacity:1;fill-rule:nonzero;stroke:none"
         id="path194" /><path
         d="m 2228.35,925.285 h -7.55 v 38.09 h 7.55 v -38.09"
         style="fill:#1c242b;fill-opacity:1;fill-rule:nonzero;stroke:none"
         id="path196" /><path
         d="m 2243.46,925.285 h -7.55 v 38.09 h 7.55 v -38.09"
         style="fill:#1c242b;fill-opacity:1;fill-rule:nonzero;stroke:none"
         id="path198" /><path
         d="m 2258.57,925.285 h -7.55 v 38.09 h 7.55 v -38.09"
         style="fill:#1c242b;fill-opacity:1;fill-rule:nonzero;stroke:none"
         id="path200" /><path
         d="m 2273.68,925.285 h -7.55 v 38.09 h 7.55 v -38.09"
         style="fill:#1c242b;fill-opacity:1;fill-rule:nonzero;stroke:none"
         id="path202" /><path
         d="m 2288.79,925.285 h -7.56 v 38.09 h 7.56 v -38.09"
         style="fill:#1c242b;fill-opacity:1;fill-rule:nonzero;stroke:none"
         id="path204" /><path
         d="m 2288.79,925.285 h -7.56 v 38.09 h 7.56 v -38.09"
         style="fill:#1c242b;fill-opacity:1;fill-rule:nonzero;stroke:none"
         id="path206" /><path
         d="m 2303.9,925.285 h -7.56 v 38.09 h 7.56 v -38.09"
         style="fill:#1c242b;fill-opacity:1;fill-rule:nonzero;stroke:none"
         id="path208" /><path
         d="m 2319.01,925.285 h -7.56 v 38.09 h 7.56 v -38.09"
         style="fill:#1c242b;fill-opacity:1;fill-rule:nonzero;stroke:none"
         id="path210" /><path
         d="m 2334.12,925.285 h -7.56 v 38.09 h 7.56 v -38.09"
         style="fill:#1c242b;fill-opacity:1;fill-rule:nonzero;stroke:none"
         id="path212" /><path
         d="m 2349.23,925.285 h -7.56 v 38.09 h 7.56 v -38.09"
         style="fill:#1c242b;fill-opacity:1;fill-rule:nonzero;stroke:none"
         id="path214" /><path
         d="m 2364.33,925.285 h -7.55 v 38.09 h 7.55 v -38.09"
         style="fill:#1c242b;fill-opacity:1;fill-rule:nonzero;stroke:none"
         id="path216" /><path
         d="m 2524.22,648.711 h -147.31 v 61.848 h 140.7 l 6.61,-61.848"
         style="fill:#eeac00;fill-opacity:1;fill-rule:nonzero;stroke:none"
         id="path218" /><path
         d="m 2376.91,697.969 h 128.27 l 5.19,-49.258 h 13.85 l -6.61,61.848 h -140.7 v -12.59"
         style="fill:#d49900;fill-opacity:1;fill-rule:nonzero;stroke:none"
         id="path220" /><path
         d="m 2494.56,673.262 h -100.34 v 12.75 h 98.68 l 1.66,-12.75"
         style="fill:#12181c;fill-opacity:1;fill-rule:nonzero;stroke:none"
         id="path222" /><path
         d="m 2394.22,673.262 v -8.192 h 99.04 v 8.192 h -99.04"
         style="fill:#d49900;fill-opacity:1;fill-rule:nonzero;stroke:none"
         id="path224" /><path
         d="m 2139.97,830.66 h 11.33 l -16.99,-22.207 h -11.34 l 17,22.207"
         style="fill:#1c242b;fill-opacity:1;fill-rule:nonzero;stroke:none"
         id="path226" /><path
         d="m 2179.63,867.605 -18.81,-24.554 h -11.33 l 18.81,24.554 h 11.33"
         style="fill:#1c242b;fill-opacity:1;fill-rule:nonzero;stroke:none"
         id="path228" /><path
         d="m 2170.19,830.66 h 11.33 l -17,-22.207 h -11.33 l 17,22.207"
         style="fill:#1c242b;fill-opacity:1;fill-rule:nonzero;stroke:none"
         id="path230" /><path
         d="m 2209.85,867.605 -18.81,-24.554 h -11.33 l 18.81,24.554 h 11.33"
         style="fill:#1c242b;fill-opacity:1;fill-rule:nonzero;stroke:none"
         id="path232" /><path
         d="m 2149.45,867.605 -18.81,-24.554 h -11.33 l 18.81,24.554 h 11.33"
         style="fill:#1c242b;fill-opacity:1;fill-rule:nonzero;stroke:none"
         id="path234" /><path
         d="m 2200.41,830.66 h 11.33 l -17,-22.207 h -11.33 l 17,22.207"
         style="fill:#1c242b;fill-opacity:1;fill-rule:nonzero;stroke:none"
         id="path236" /><path
         d="m 2240.07,867.605 -18.81,-24.554 h -11.33 l 18.81,24.554 h 11.33"
         style="fill:#1c242b;fill-opacity:1;fill-rule:nonzero;stroke:none"
         id="path238" /><path
         d="m 2230.63,830.66 h 11.33 l -17,-22.207 h -11.33 l 17,22.207"
         style="fill:#1c242b;fill-opacity:1;fill-rule:nonzero;stroke:none"
         id="path240" /><path
         d="m 2270.29,867.605 -18.81,-24.554 h -11.34 l 18.82,24.554 h 11.33"
         style="fill:#1c242b;fill-opacity:1;fill-rule:nonzero;stroke:none"
         id="path242" /><path
         d="m 2260.84,830.66 h 11.34 l -17,-22.207 h -11.33 l 16.99,22.207"
         style="fill:#1c242b;fill-opacity:1;fill-rule:nonzero;stroke:none"
         id="path244" /><path
         d="m 2300.5,867.605 -18.81,-24.554 h -11.33 l 18.81,24.554 h 11.33"
         style="fill:#1c242b;fill-opacity:1;fill-rule:nonzero;stroke:none"
         id="path246" /><path
         d="m 2291.06,830.66 h 11.33 l -16.99,-22.207 h -11.34 l 17,22.207"
         style="fill:#1c242b;fill-opacity:1;fill-rule:nonzero;stroke:none"
         id="path248" /><path
         d="m 2330.72,867.605 -18.81,-24.554 h -11.33 l 18.81,24.554 h 11.33"
         style="fill:#1c242b;fill-opacity:1;fill-rule:nonzero;stroke:none"
         id="path250" /><path
         d="m 2321.28,830.66 h 11.33 l -17,-22.207 h -11.33 l 17,22.207"
         style="fill:#1c242b;fill-opacity:1;fill-rule:nonzero;stroke:none"
         id="path252" /><path
         d="m 2360.94,867.605 -18.81,-24.554 h -11.33 l 18.81,24.554 h 11.33"
         style="fill:#1c242b;fill-opacity:1;fill-rule:nonzero;stroke:none"
         id="path254" /><path
         d="m 2351.5,830.66 h 11.33 l -17,-22.207 h -11.33 l 17,22.207"
         style="fill:#1c242b;fill-opacity:1;fill-rule:nonzero;stroke:none"
         id="path256" /><path
         d="m 2391.16,867.605 -18.81,-24.554 h -11.33 l 18.81,24.554 h 11.33"
         style="fill:#1c242b;fill-opacity:1;fill-rule:nonzero;stroke:none"
         id="path258" /><path
         d="m 2381.72,830.66 h 11.33 l -17,-22.207 h -11.33 l 17,22.207"
         style="fill:#1c242b;fill-opacity:1;fill-rule:nonzero;stroke:none"
         id="path260" /><path
         d="m 2421.38,867.605 -18.81,-24.554 h -11.34 l 18.82,24.554 h 11.33"
         style="fill:#1c242b;fill-opacity:1;fill-rule:nonzero;stroke:none"
         id="path262" /><path
         d="m 2411.18,830.66 h 11.33 l -17,-22.207 h -11.33 l 17,22.207"
         style="fill:#1c242b;fill-opacity:1;fill-rule:nonzero;stroke:none"
         id="path264" /><path
         d="m 2440.64,830.66 h 11.33 l -17,-22.207 h -11.33 l 17,22.207"
         style="fill:#1c242b;fill-opacity:1;fill-rule:nonzero;stroke:none"
         id="path266" /><path
         d="m 2450.84,867.605 -18.81,-24.554 h -11.33 l 18.81,24.554 h 11.33"
         style="fill:#1c242b;fill-opacity:1;fill-rule:nonzero;stroke:none"
         id="path268" /><path
         d="m 2500.46,773.512 h -435.23 v 10.386 h 435.23 v -10.386"
         style="fill:#eeac00;fill-opacity:1;fill-rule:nonzero;stroke:none"
         id="path270" /><path
         d="m 1992.26,718.27 h -40.68 v 14.164 h 40.68 V 718.27"
         style="fill:#323c49;fill-opacity:1;fill-rule:nonzero;stroke:none"
         id="path272" /><path
         d="m 1996.59,725.352 h -49.34 v 7.082 h 49.34 v -7.082"
         style="fill:#ffc600;fill-opacity:1;fill-rule:nonzero;stroke:none"
         id="path274" /><path
         d="m 2005.64,660.551 h -72.73 v 7.238 h 72.73 v -7.238"
         style="fill:#eeac00;fill-opacity:1;fill-rule:nonzero;stroke:none"
         id="path276" /><path
         d="m 2005.64,665.27 h -72.73 v 7.242 h 72.73 v -7.242"
         style="fill:#1c242b;fill-opacity:1;fill-rule:nonzero;stroke:none"
         id="path278" /><path
         d="m 2005.64,636.898 h -72.73 v 7.243 h 72.73 v -7.243"
         style="fill:#eeac00;fill-opacity:1;fill-rule:nonzero;stroke:none"
         id="path280" /><path
         d="m 2005.64,641.621 h -72.73 v 7.238 h 72.73 v -7.238"
         style="fill:#1c242b;fill-opacity:1;fill-rule:nonzero;stroke:none"
         id="path282" /><path
         d="m 1631.91,1093.4 h -67.99 v 56.66 h 67.99 v -56.66"
         style="fill:#eeac00;fill-opacity:1;fill-rule:nonzero;stroke:none"
         id="path284" /><path
         d="m 949.281,1327.04 -11.222,19.44 11.222,19.43 h 22.446 l 11.222,-19.43 -11.222,-19.44 h -22.446"
         style="fill:#1c242b;fill-opacity:1;fill-rule:nonzero;stroke:none"
         id="path286" /><path
         d="m 1019.05,1330.89 -36.101,-61.38 30.751,6.77 16.37,31.79 479.08,-118.03 v 23.92 l -490.1,116.93"
         style="fill:#eeac00;fill-opacity:1;fill-rule:nonzero;stroke:none"
         id="path288" /><path
         d="m 883.57,1399.71 -7.742,-53.23 66.274,-147.26 27.312,47 -6.519,2.4 -79.325,151.09"
         style="fill:#bf8a00;fill-opacity:1;fill-rule:nonzero;stroke:none"
         id="path290" /><path
         d="m 1504.11,1139.64 c 0,-13.91 -11.27,-25.18 -25.18,-25.18 -13.91,0 -25.18,11.27 -25.18,25.18 0,13.91 11.27,25.18 25.18,25.18 13.91,0 25.18,-11.27 25.18,-25.18"
         style="fill:#eeac00;fill-opacity:1;fill-rule:nonzero;stroke:none"
         id="path292" /><path
         d="m 1020.74,1507.01 c 0,-14.17 -11.49,-25.66 -25.662,-25.66 -14.172,0 -25.664,11.49 -25.664,25.66 0,14.17 11.492,25.66 25.664,25.66 14.172,0 25.662,-11.49 25.662,-25.66"
         style="fill:#ffc600;fill-opacity:1;fill-rule:nonzero;stroke:none"
         id="path294" /><path
         d="m 988.844,1496.21 -6.231,10.8 6.231,10.79 h 12.466 l 6.23,-10.79 -6.23,-10.8 h -12.466"
         style="fill:#1c242b;fill-opacity:1;fill-rule:nonzero;stroke:none"
         id="path296" /><path
         d="m 1317.97,1302.18 c 0,0 168.89,-30.22 185.51,-41.72 l -46.74,26.02 -182.13,38.49 43.36,-22.79"
         style="fill:#d49900;fill-opacity:1;fill-rule:nonzero;stroke:none"
         id="path298" /><path
         d="m 1025.66,1385.51 c 0,0 -15.78,8.5 -18.12,10.38 -2.34,1.89 -50.399,39.97 -84.919,31.32 0,0 37.899,15.9 83.369,-15.58 l 19.67,-13.31 v -12.81"
         style="fill:#d49900;fill-opacity:1;fill-rule:nonzero;stroke:none"
         id="path300" /><path
         d="m 1556.36,1189.83 c -3.02,-51.67 -76.6,-53.94 -77.35,-53.94 l -0.16,7.56 c 0.68,0 67.39,2.11 69.96,46.84 3.25,55.75 -61.87,83.92 -117.1,97.75 -13.82,3.48 -34.52,8.24 -60.73,14.28 -105.31,24.4 -273.7,63.38 -345.32,95.94 -8.84,4.08 -16.17,8.01 -21.76,11.79 -27.947,19.04 -59.677,24.32 -89.517,14.95 -24.176,-7.55 -43.817,-24.55 -51.371,-44.34 -13.824,-36.03 -42.832,-65.12 -52.957,-74.49 l 5.363,16.02 c 12.543,13.45 30.75,35.73 40.492,61.19 8.539,22.21 29.539,40.49 56.207,48.88 32.106,10.04 66.176,4.38 96.013,-15.94 4.61,-3.1 10.5,-6.35 17.53,-9.67 69.12,-32.64 247.18,-73.81 347.05,-96.93 26.22,-6.04 46.92,-10.88 60.89,-14.35 83.1,-20.78 125.56,-57.26 122.76,-105.54"
         style="fill:#1c242b;fill-opacity:1;fill-rule:nonzero;stroke:none"
         id="path302" /><path
         d="m 625.102,805.863 316.496,-171.843 70.982,10.109 28.9,-15.699 -322.75,-122.282 -188.871,72.614 95.243,227.101"
         style="fill:#323c49;fill-opacity:1;fill-rule:nonzero;stroke:none"
         id="path304" /><path
         d="M 604,791.121 739.391,682.059 765.285,729.746 643.316,887.66 604,791.121"
         style="fill:#1c242b;fill-opacity:1;fill-rule:nonzero;stroke:none"
         id="path306" /><path
         d="m 649.961,846.422 c 0,-22.774 -18.465,-41.238 -41.238,-41.238 -22.778,0 -41.243,18.464 -41.243,41.238 0,22.777 18.465,41.238 41.243,41.238 22.773,0 41.238,-18.461 41.238,-41.238"
         style="fill:#eeac00;fill-opacity:1;fill-rule:nonzero;stroke:none"
         id="path308" /><path
         d="m 612.813,822.695 46.457,80.856 h 84.984 l 18.469,32.148 -121.871,-0.472 -41.707,-76.645 13.668,-35.887"
         style="fill:#12181c;fill-opacity:1;fill-rule:nonzero;stroke:none"
         id="path310" /><path
         d="m 771.168,919.609 c 0,-18.511 -15.008,-33.519 -33.523,-33.519 -18.512,0 -33.524,15.008 -33.524,33.519 0,18.516 15.012,33.524 33.524,33.524 18.515,0 33.523,-15.008 33.523,-33.524"
         style="fill:#ffc600;fill-opacity:1;fill-rule:nonzero;stroke:none"
         id="path312" /><path
         d="m 730.141,906.613 -7.504,12.996 7.504,13 h 15.007 l 7.504,-13 -7.504,-12.996 h -15.007"
         style="fill:#1c242b;fill-opacity:1;fill-rule:nonzero;stroke:none"
         id="path314" /><path
         d="m 639.18,846.422 c 0,-16.82 -13.637,-30.457 -30.457,-30.457 -16.825,0 -30.461,13.637 -30.461,30.457 0,16.82 13.636,30.457 30.461,30.457 16.82,0 30.457,-13.637 30.457,-30.457"
         style="fill:#1c242b;fill-opacity:1;fill-rule:nonzero;stroke:none"
         id="path316" /><path
         d="m 602.488,835.629 -6.23,10.793 6.23,10.797 h 12.465 l 6.231,-10.797 -6.231,-10.793 h -12.465"
         style="fill:#eeac00;fill-opacity:1;fill-rule:nonzero;stroke:none"
         id="path318" /><path
         d="m 828.941,1362.91 -3.777,-11.48 c -4.23,-2.35 -9.441,-4.54 -16.016,-6.66 -5.437,-1.73 -11.859,-3.39 -19.339,-4.83 -5.211,-1.06 -10.954,-3.48 -16.77,-7.03 -7.555,-4.6 -15.336,-11.1 -22.59,-18.88 -7.101,-7.4 -13.672,-16.02 -19.109,-25.16 -14.43,-24.24 -20.024,-49.71 -16.02,-72.9 l -4.683,-13.14 c -8.762,28.03 -3.699,59.9 14.203,89.9 8.613,14.43 19.719,27.42 31.203,37.09 6.949,5.89 13.973,10.57 20.773,13.67 4.004,1.81 7.856,3.17 11.559,3.85 9.973,1.89 17.828,4.16 24.023,6.58 7.93,3.02 13.145,6.19 16.543,8.99"
         style="fill:#1c242b;fill-opacity:1;fill-rule:nonzero;stroke:none"
         id="path320" /></g></g></svg>
