<svg id="svg" xmlns="http://www.w3.org/2000/svg" xmlns:xlink="http://www.w3.org/1999/xlink" width="400" height="153.30634278002697" viewBox="0, 0, 400,153.30634278002697" version="1.1"><g id="svgg"><path id="path0" d="M193.522 0.613 C 183.148 1.378,171.911 5.913,165.800 11.801 C 161.007 16.419,158.802 20.533,161.538 19.753 C 167.095 18.169,188.322 15.115,193.778 15.115 C 197.373 15.115,197.301 14.673,197.301 36.658 L 197.301 56.410 199.865 56.575 L 202.429 56.739 202.429 36.575 C 202.429 14.226,202.278 15.115,206.077 15.115 C 211.062 15.115,232.276 18.085,237.031 19.449 C 240.478 20.437,240.008 18.482,235.629 13.610 C 227.042 4.060,211.562 -0.718,193.522 0.613 M180.963 19.990 C 174.089 20.546,163.535 22.053,160.621 22.895 L 158.435 23.526 158.276 27.746 C 157.834 39.505,166.261 48.789,182.070 53.963 C 186.934 55.554,186.891 55.592,188.554 48.235 C 195.036 19.549,194.853 18.867,180.963 19.990 M209.987 19.835 C 205.731 20.580,205.766 23.939,210.247 44.534 C 211.022 48.097,211.799 51.808,211.974 52.780 C 212.410 55.211,212.671 55.270,217.129 53.952 C 232.152 49.509,241.491 39.762,241.516 28.501 C 241.522 25.917,241.414 23.692,241.276 23.556 C 239.911 22.208,214.021 19.129,209.987 19.835 M144.130 73.675 L 144.130 78.273 148.178 78.273 L 152.227 78.273 152.227 87.989 L 152.227 97.706 158.165 97.706 L 164.103 97.706 164.103 88.013 L 164.103 78.320 168.016 78.161 L 171.930 78.003 171.930 73.684 L 171.930 69.366 158.030 69.222 L 144.130 69.078 144.130 73.675 M173.274 82.713 C 170.457 90.203,168.073 96.640,167.977 97.018 C 167.843 97.544,169.199 97.706,173.735 97.706 L 179.668 97.706 181.880 91.093 C 183.097 87.456,184.274 84.195,184.496 83.846 C 184.727 83.482,185.948 86.242,187.361 90.324 L 189.824 97.436 195.921 97.589 C 200.713 97.710,201.961 97.594,201.748 97.049 C 201.600 96.668,199.100 90.223,196.193 82.726 L 190.907 69.096 184.652 69.096 L 178.397 69.096 173.274 82.713 M198.111 73.684 L 198.111 78.273 201.889 78.273 L 205.668 78.273 205.668 87.989 L 205.668 97.706 211.876 97.706 L 218.084 97.706 218.084 87.989 L 218.084 78.273 221.862 78.273 L 225.641 78.273 225.641 73.684 L 225.641 69.096 211.876 69.096 L 198.111 69.096 198.111 73.684 M230.852 72.723 C 230.096 74.736,227.764 80.901,225.670 86.424 C 220.910 98.975,220.695 97.773,227.665 97.589 L 233.468 97.436 235.819 90.553 C 237.112 86.768,238.327 83.671,238.519 83.671 C 238.711 83.671,239.951 86.829,241.275 90.688 L 243.681 97.706 249.506 97.706 C 253.814 97.706,255.327 97.530,255.316 97.031 C 255.307 96.660,252.936 90.283,250.047 82.861 L 244.794 69.366 238.510 69.214 L 232.226 69.062 230.852 72.723 M178.074 124.331 C 171.109 126.931,167.961 132.185,168.539 140.242 C 169.215 149.659,177.779 155.239,187.584 152.649 L 190.283 151.937 190.126 149.540 C 189.927 146.515,190.100 146.622,186.584 147.352 C 177.823 149.171,171.997 141.381,176.113 133.353 C 178.125 129.430,181.923 128.295,188.592 129.624 C 190.027 129.910,191.383 125.609,190.174 124.606 C 189.003 123.634,180.460 123.440,178.074 124.331 M254.251 124.326 C 249.014 125.986,245.240 132.826,245.736 139.759 C 247.048 158.102,271.422 157.595,272.495 139.203 C 273.162 127.782,264.816 120.977,254.251 124.326 M301.294 124.235 C 296.057 125.743,292.199 132.767,292.707 139.869 C 294.001 157.958,318.574 157.523,319.489 139.396 C 320.071 127.868,312.010 121.151,301.294 124.235 M333.223 124.139 C 326.730 125.683,322.836 130.443,322.390 137.382 C 321.628 149.248,329.367 154.859,342.915 152.263 L 346.559 151.565 346.559 144.068 L 346.559 136.572 341.161 136.572 L 335.762 136.572 335.762 139.001 L 335.762 141.430 338.192 141.430 L 340.621 141.430 340.621 144.399 L 340.621 147.368 337.517 147.366 C 331.838 147.363,328.751 144.225,328.747 138.453 C 328.742 130.792,334.258 127.544,343.377 129.837 C 344.852 130.208,346.654 126.195,345.521 125.062 C 344.261 123.802,336.949 123.253,333.223 124.139 M385.997 124.793 C 378.483 128.719,379.563 135.970,388.296 140.225 C 393.231 142.630,393.853 143.277,393.311 145.438 C 392.783 147.541,389.994 148.173,385.888 147.121 C 382.064 146.142,381.683 146.332,381.268 149.424 C 380.679 153.819,392.372 154.626,397.056 150.513 C 402.421 145.803,400.523 139.234,392.729 135.531 C 384.196 131.477,386.412 127.950,396.424 129.652 C 397.909 129.905,399.305 125.929,398.139 124.764 C 396.660 123.284,388.849 123.303,385.997 124.793 M0.000 128.745 L 0.000 133.333 3.766 133.333 L 7.532 133.333 7.680 142.915 L 7.827 152.497 13.765 152.497 L 19.703 152.497 19.851 142.915 L 19.998 133.333 23.764 133.333 L 27.530 133.333 27.530 128.745 L 27.530 124.157 13.765 124.157 L 0.000 124.157 0.000 128.745 M33.206 126.451 C 29.709 135.173,23.752 151.238,23.752 151.946 C 23.752 152.685,24.545 152.782,29.497 152.650 L 35.243 152.497 37.680 145.322 C 39.021 141.376,40.292 138.340,40.505 138.575 C 40.718 138.809,41.567 141.066,42.391 143.590 C 43.216 146.113,44.331 149.211,44.868 150.472 L 45.846 152.767 51.533 152.767 C 58.460 152.767,58.299 153.871,53.251 141.013 C 51.068 135.453,48.701 129.386,47.990 127.530 L 46.699 124.157 40.412 124.157 L 34.125 124.157 33.206 126.451 M53.554 128.610 L 53.711 133.063 57.625 133.222 L 61.538 133.381 61.538 143.091 L 61.538 152.802 67.611 152.649 L 73.684 152.497 73.832 142.939 L 73.979 133.382 77.610 133.223 L 81.242 133.063 81.398 128.610 L 81.555 124.157 67.476 124.157 L 53.398 124.157 53.554 128.610 M87.442 125.354 C 84.943 131.056,77.367 152.048,77.688 152.382 C 77.913 152.615,80.606 152.737,83.674 152.651 L 89.251 152.497 91.728 145.063 L 94.205 137.628 95.105 140.204 C 95.599 141.621,96.782 145.027,97.732 147.773 L 99.461 152.767 105.331 152.767 C 112.454 152.767,112.387 154.480,105.917 137.922 L 100.645 124.426 94.313 124.274 C 88.170 124.127,87.966 124.159,87.442 125.354 M124.262 126.721 L 124.426 129.285 128.070 129.444 L 131.714 129.604 131.714 141.212 L 131.714 152.820 134.818 152.659 L 137.922 152.497 138.067 141.026 L 138.213 129.555 141.127 129.555 C 145.353 129.555,145.749 129.295,145.749 126.528 L 145.749 124.157 134.923 124.157 L 124.097 124.157 124.262 126.721 M148.691 124.841 C 148.547 125.218,148.494 131.594,148.573 139.011 L 148.718 152.497 157.625 152.497 L 166.532 152.497 166.532 150.067 L 166.532 147.638 160.729 147.485 L 154.926 147.332 154.926 143.841 L 154.926 140.351 160.054 140.351 L 165.182 140.351 165.182 137.652 L 165.182 134.953 160.054 134.953 L 154.926 134.953 154.926 131.984 L 154.926 129.015 160.324 129.015 L 165.722 129.015 165.722 126.586 L 165.722 124.157 157.338 124.157 C 151.065 124.157,148.888 124.329,148.691 124.841 M193.792 138.462 L 193.792 152.767 196.761 152.767 L 199.730 152.767 199.730 146.559 L 199.730 140.351 205.128 140.351 L 210.526 140.351 210.526 146.559 L 210.526 152.767 213.495 152.767 L 216.464 152.767 216.464 138.462 L 216.464 124.157 213.495 124.157 L 210.526 124.157 210.526 129.555 L 210.526 134.953 205.128 134.953 L 199.730 134.953 199.730 129.555 L 199.730 124.157 196.761 124.157 L 193.792 124.157 193.792 138.462 M220.243 138.436 L 220.243 152.767 222.942 152.767 L 225.641 152.767 225.641 143.217 L 225.641 133.668 230.818 142.542 C 237.232 153.536,236.540 152.767,240.012 152.767 L 242.915 152.767 242.915 138.462 L 242.915 124.157 239.946 124.157 L 236.977 124.157 236.976 132.659 L 236.975 141.161 231.956 132.794 L 226.938 124.426 223.590 124.266 L 220.243 124.105 220.243 138.436 M275.843 138.475 L 275.843 152.793 284.615 152.645 L 293.387 152.497 293.387 150.067 L 293.387 147.638 287.584 147.485 L 281.781 147.332 281.781 135.744 L 281.781 124.157 278.812 124.157 L 275.843 124.157 275.843 138.475 M350.581 124.841 C 350.436 125.218,350.383 131.594,350.463 139.011 L 350.607 152.497 353.711 152.659 L 356.815 152.820 356.815 138.488 L 356.815 124.157 353.829 124.157 C 351.916 124.157,350.749 124.402,350.581 124.841 M360.594 138.475 L 360.594 152.793 369.366 152.645 L 378.138 152.497 378.302 149.933 L 378.467 147.368 372.769 147.368 L 367.072 147.368 367.072 143.860 L 367.072 140.351 372.229 140.351 L 377.387 140.351 377.223 137.787 L 377.058 135.223 372.065 135.067 L 367.072 134.912 367.072 131.964 L 367.072 129.015 372.470 129.015 L 377.868 129.015 377.868 126.586 L 377.868 124.157 369.231 124.157 L 360.594 124.157 360.594 138.475 M263.106 130.364 C 268.527 135.387,266.347 146.915,259.826 147.712 C 252.779 148.574,249.427 137.095,254.904 130.858 C 257.031 128.435,260.782 128.209,263.106 130.364 M310.213 130.769 C 316.943 137.912,310.796 151.607,302.995 146.850 C 298.397 144.047,297.716 134.756,301.809 130.663 C 304.231 128.241,307.874 128.287,310.213 130.769 " stroke="none" fill="#000000" fill-rule="evenodd"></path></g></svg>